ISO-10303-21;
HEADER;
FILE_DESCRIPTION((''),'2;1');
FILE_NAME('RASBERRYPI3','2026-02-15T15:52:36',('coren'),(''),
'CREO PARAMETRIC BY PTC INC, 2022164','CREO PARAMETRIC BY PTC INC, 2022164','');
FILE_SCHEMA(('CONFIG_CONTROL_DESIGN'));
ENDSEC;
DATA;
#1=CARTESIAN_POINT('',(-2.45E1,-2.9E1,0.E0));
#2=DIRECTION('',(0.E0,0.E0,-1.E0));
#3=DIRECTION('',(0.E0,1.E0,0.E0));
#4=AXIS2_PLACEMENT_3D('',#1,#2,#3);
#6=CARTESIAN_POINT('',(-2.45E1,-2.9E1,0.E0));
#7=DIRECTION('',(0.E0,0.E0,-1.E0));
#8=DIRECTION('',(0.E0,-1.E0,0.E0));
#9=AXIS2_PLACEMENT_3D('',#6,#7,#8);
#11=CARTESIAN_POINT('',(2.45E1,-2.9E1,0.E0));
#12=DIRECTION('',(0.E0,0.E0,-1.E0));
#13=DIRECTION('',(0.E0,1.E0,0.E0));
#14=AXIS2_PLACEMENT_3D('',#11,#12,#13);
#16=CARTESIAN_POINT('',(2.45E1,-2.9E1,0.E0));
#17=DIRECTION('',(0.E0,0.E0,-1.E0));
#18=DIRECTION('',(0.E0,-1.E0,0.E0));
#19=AXIS2_PLACEMENT_3D('',#16,#17,#18);
#21=CARTESIAN_POINT('',(2.45E1,2.9E1,0.E0));
#22=DIRECTION('',(0.E0,0.E0,-1.E0));
#23=DIRECTION('',(0.E0,1.E0,0.E0));
#24=AXIS2_PLACEMENT_3D('',#21,#22,#23);
#26=CARTESIAN_POINT('',(2.45E1,2.9E1,0.E0));
#27=DIRECTION('',(0.E0,0.E0,-1.E0));
#28=DIRECTION('',(0.E0,-1.E0,0.E0));
#29=AXIS2_PLACEMENT_3D('',#26,#27,#28);
#31=CARTESIAN_POINT('',(-2.45E1,2.9E1,0.E0));
#32=DIRECTION('',(0.E0,0.E0,-1.E0));
#33=DIRECTION('',(0.E0,1.E0,0.E0));
#34=AXIS2_PLACEMENT_3D('',#31,#32,#33);
#36=CARTESIAN_POINT('',(-2.45E1,2.9E1,0.E0));
#37=DIRECTION('',(0.E0,0.E0,-1.E0));
#38=DIRECTION('',(0.E0,-1.E0,0.E0));
#39=AXIS2_PLACEMENT_3D('',#36,#37,#38);
#41=DIRECTION('',(0.E0,-1.E0,0.E0));
#42=VECTOR('',#41,5.9E1);
#43=CARTESIAN_POINT('',(-2.8E1,2.95E1,0.E0));
#44=LINE('',#43,#42);
#45=CARTESIAN_POINT('',(-2.5E1,-2.95E1,0.E0));
#46=DIRECTION('',(0.E0,0.E0,1.E0));
#47=DIRECTION('',(-1.E0,0.E0,0.E0));
#48=AXIS2_PLACEMENT_3D('',#45,#46,#47);
#50=DIRECTION('',(1.E0,0.E0,0.E0));
#51=VECTOR('',#50,5.E1);
#52=CARTESIAN_POINT('',(-2.5E1,-3.25E1,0.E0));
#53=LINE('',#52,#51);
#54=CARTESIAN_POINT('',(2.5E1,-2.95E1,0.E0));
#55=DIRECTION('',(0.E0,0.E0,1.E0));
#56=DIRECTION('',(0.E0,-1.E0,0.E0));
#57=AXIS2_PLACEMENT_3D('',#54,#55,#56);
#59=DIRECTION('',(0.E0,1.E0,0.E0));
#60=VECTOR('',#59,5.9E1);
#61=CARTESIAN_POINT('',(2.8E1,-2.95E1,0.E0));
#62=LINE('',#61,#60);
#63=CARTESIAN_POINT('',(2.5E1,2.95E1,0.E0));
#64=DIRECTION('',(0.E0,0.E0,1.E0));
#65=DIRECTION('',(1.E0,0.E0,0.E0));
#66=AXIS2_PLACEMENT_3D('',#63,#64,#65);
#68=DIRECTION('',(-1.E0,0.E0,0.E0));
#69=VECTOR('',#68,5.E1);
#70=CARTESIAN_POINT('',(2.5E1,3.25E1,0.E0));
#71=LINE('',#70,#69);
#72=CARTESIAN_POINT('',(-2.5E1,2.95E1,0.E0));
#73=DIRECTION('',(0.E0,0.E0,1.E0));
#74=DIRECTION('',(-2.013204417987E-14,1.E0,0.E0));
#75=AXIS2_PLACEMENT_3D('',#72,#73,#74);
#77=DIRECTION('',(0.E0,0.E0,1.E0));
#78=VECTOR('',#77,1.E0);
#79=CARTESIAN_POINT('',(-2.45E1,-2.75E1,0.E0));
#80=LINE('',#79,#78);
#81=DIRECTION('',(0.E0,0.E0,1.E0));
#82=VECTOR('',#81,1.E0);
#83=CARTESIAN_POINT('',(-2.45E1,-3.05E1,0.E0));
#84=LINE('',#83,#82);
#85=CARTESIAN_POINT('',(-2.45E1,-2.9E1,1.E0));
#86=DIRECTION('',(0.E0,0.E0,-1.E0));
#87=DIRECTION('',(0.E0,1.E0,0.E0));
#88=AXIS2_PLACEMENT_3D('',#85,#86,#87);
#90=CARTESIAN_POINT('',(-2.45E1,-2.9E1,1.E0));
#91=DIRECTION('',(0.E0,0.E0,-1.E0));
#92=DIRECTION('',(0.E0,-1.E0,0.E0));
#93=AXIS2_PLACEMENT_3D('',#90,#91,#92);
#95=CARTESIAN_POINT('',(2.45E1,-2.9E1,1.E0));
#96=DIRECTION('',(0.E0,0.E0,-1.E0));
#97=DIRECTION('',(0.E0,1.E0,0.E0));
#98=AXIS2_PLACEMENT_3D('',#95,#96,#97);
#100=CARTESIAN_POINT('',(2.45E1,-2.9E1,1.E0));
#101=DIRECTION('',(0.E0,0.E0,-1.E0));
#102=DIRECTION('',(0.E0,-1.E0,0.E0));
#103=AXIS2_PLACEMENT_3D('',#100,#101,#102);
#105=CARTESIAN_POINT('',(2.45E1,2.9E1,1.E0));
#106=DIRECTION('',(0.E0,0.E0,-1.E0));
#107=DIRECTION('',(0.E0,1.E0,0.E0));
#108=AXIS2_PLACEMENT_3D('',#105,#106,#107);
#110=CARTESIAN_POINT('',(2.45E1,2.9E1,1.E0));
#111=DIRECTION('',(0.E0,0.E0,-1.E0));
#112=DIRECTION('',(0.E0,-1.E0,0.E0));
#113=AXIS2_PLACEMENT_3D('',#110,#111,#112);
#115=CARTESIAN_POINT('',(-2.45E1,2.9E1,1.E0));
#116=DIRECTION('',(0.E0,0.E0,-1.E0));
#117=DIRECTION('',(0.E0,1.E0,0.E0));
#118=AXIS2_PLACEMENT_3D('',#115,#116,#117);
#120=CARTESIAN_POINT('',(-2.45E1,2.9E1,1.E0));
#121=DIRECTION('',(0.E0,0.E0,-1.E0));
#122=DIRECTION('',(0.E0,-1.E0,0.E0));
#123=AXIS2_PLACEMENT_3D('',#120,#121,#122);
#125=DIRECTION('',(0.E0,-1.E0,0.E0));
#126=VECTOR('',#125,5.2E1);
#127=CARTESIAN_POINT('',(-2.7E1,2.6E1,1.E0));
#128=LINE('',#127,#126);
#129=DIRECTION('',(1.E0,0.E0,0.E0));
#130=VECTOR('',#129,5.E0);
#131=CARTESIAN_POINT('',(-2.7E1,-2.6E1,1.E0));
#132=LINE('',#131,#130);
#133=DIRECTION('',(0.E0,1.E0,0.E0));
#134=VECTOR('',#133,5.2E1);
#135=CARTESIAN_POINT('',(-2.2E1,-2.6E1,1.E0));
#136=LINE('',#135,#134);
#137=DIRECTION('',(-1.E0,0.E0,0.E0));
#138=VECTOR('',#137,5.E0);
#139=CARTESIAN_POINT('',(-2.2E1,2.6E1,1.E0));
#140=LINE('',#139,#138);
#141=DIRECTION('',(0.E0,-1.E0,0.E0));
#142=VECTOR('',#141,4.E0);
#143=CARTESIAN_POINT('',(-1.1E1,-2.7E1,1.E0));
#144=LINE('',#143,#142);
#145=DIRECTION('',(1.E0,0.E0,0.E0));
#146=VECTOR('',#145,2.2E1);
#147=CARTESIAN_POINT('',(-1.1E1,-3.1E1,1.E0));
#148=LINE('',#147,#146);
#149=DIRECTION('',(0.E0,1.E0,0.E0));
#150=VECTOR('',#149,4.E0);
#151=CARTESIAN_POINT('',(1.1E1,-3.1E1,1.E0));
#152=LINE('',#151,#150);
#153=DIRECTION('',(-1.E0,0.E0,0.E0));
#154=VECTOR('',#153,2.2E1);
#155=CARTESIAN_POINT('',(1.1E1,-2.7E1,1.E0));
#156=LINE('',#155,#154);
#157=DIRECTION('',(0.E0,-1.E0,0.E0));
#158=VECTOR('',#157,4.E0);
#159=CARTESIAN_POINT('',(5.5E0,1.45E1,1.E0));
#160=LINE('',#159,#158);
#161=DIRECTION('',(1.E0,0.E0,0.E0));
#162=VECTOR('',#161,2.2E1);
#163=CARTESIAN_POINT('',(5.5E0,1.05E1,1.E0));
#164=LINE('',#163,#162);
#165=DIRECTION('',(0.E0,1.E0,0.E0));
#166=VECTOR('',#165,4.E0);
#167=CARTESIAN_POINT('',(2.75E1,1.05E1,1.E0));
#168=LINE('',#167,#166);
#169=DIRECTION('',(-1.E0,0.E0,0.E0));
#170=VECTOR('',#169,2.2E1);
#171=CARTESIAN_POINT('',(2.75E1,1.45E1,1.E0));
#172=LINE('',#171,#170);
#173=DIRECTION('',(-1.E0,0.E0,0.E0));
#174=VECTOR('',#173,1.25E1);
#175=CARTESIAN_POINT('',(2.8E1,2.4E1,1.E0));
#176=LINE('',#175,#174);
#177=DIRECTION('',(0.E0,-1.E0,0.E0));
#178=VECTOR('',#177,6.E0);
#179=CARTESIAN_POINT('',(1.55E1,2.4E1,1.E0));
#180=LINE('',#179,#178);
#181=DIRECTION('',(-1.E0,0.E0,0.E0));
#182=VECTOR('',#181,1.25E1);
#183=CARTESIAN_POINT('',(2.8E1,1.8E1,1.E0));
#184=LINE('',#183,#182);
#185=DIRECTION('',(0.E0,1.E0,0.E0));
#186=VECTOR('',#185,1.1E1);
#187=CARTESIAN_POINT('',(2.8E1,7.E0,1.E0));
#188=LINE('',#187,#186);
#189=DIRECTION('',(-1.E0,0.E0,0.E0));
#190=VECTOR('',#189,1.1E1);
#191=CARTESIAN_POINT('',(2.8E1,7.E0,1.E0));
#192=LINE('',#191,#190);
#193=DIRECTION('',(0.E0,-1.E0,0.E0));
#194=VECTOR('',#193,1.5E1);
#195=CARTESIAN_POINT('',(1.7E1,7.E0,1.E0));
#196=LINE('',#195,#194);
#197=DIRECTION('',(-1.E0,0.E0,0.E0));
#198=VECTOR('',#197,1.1E1);
#199=CARTESIAN_POINT('',(2.8E1,-8.E0,1.E0));
#200=LINE('',#199,#198);
#201=DIRECTION('',(0.E0,1.E0,0.E0));
#202=VECTOR('',#201,2.15E1);
#203=CARTESIAN_POINT('',(2.8E1,-2.95E1,1.E0));
#204=LINE('',#203,#202);
#205=CARTESIAN_POINT('',(2.5E1,-2.95E1,1.E0));
#206=DIRECTION('',(0.E0,0.E0,1.E0));
#207=DIRECTION('',(0.E0,-1.E0,0.E0));
#208=AXIS2_PLACEMENT_3D('',#205,#206,#207);
#210=DIRECTION('',(1.E0,0.E0,0.E0));
#211=VECTOR('',#210,5.E1);
#212=CARTESIAN_POINT('',(-2.5E1,-3.25E1,1.E0));
#213=LINE('',#212,#211);
#214=CARTESIAN_POINT('',(-2.5E1,-2.95E1,1.E0));
#215=DIRECTION('',(0.E0,0.E0,1.E0));
#216=DIRECTION('',(-1.E0,0.E0,0.E0));
#217=AXIS2_PLACEMENT_3D('',#214,#215,#216);
#219=DIRECTION('',(0.E0,-1.E0,0.E0));
#220=VECTOR('',#219,5.9E1);
#221=CARTESIAN_POINT('',(-2.8E1,2.95E1,1.E0));
#222=LINE('',#221,#220);
#223=CARTESIAN_POINT('',(-2.5E1,2.95E1,1.E0));
#224=DIRECTION('',(0.E0,0.E0,1.E0));
#225=DIRECTION('',(-2.013204417987E-14,1.E0,0.E0));
#226=AXIS2_PLACEMENT_3D('',#223,#224,#225);
#228=DIRECTION('',(-1.E0,0.E0,0.E0));
#229=VECTOR('',#228,1.655E1);
#230=CARTESIAN_POINT('',(-8.45E0,3.25E1,1.E0));
#231=LINE('',#230,#229);
#232=DIRECTION('',(0.E0,-1.E0,0.E0));
#233=VECTOR('',#232,1.05E1);
#234=CARTESIAN_POINT('',(-8.45E0,3.25E1,1.E0));
#235=LINE('',#234,#233);
#236=DIRECTION('',(1.E0,0.E0,0.E0));
#237=VECTOR('',#236,1.E1);
#238=CARTESIAN_POINT('',(-8.45E0,2.2E1,1.E0));
#239=LINE('',#238,#237);
#240=DIRECTION('',(0.E0,-1.E0,0.E0));
#241=VECTOR('',#240,1.05E1);
#242=CARTESIAN_POINT('',(1.55E0,3.25E1,1.E0));
#243=LINE('',#242,#241);
#244=DIRECTION('',(-1.E0,0.E0,0.E0));
#245=VECTOR('',#244,2.345E1);
#246=CARTESIAN_POINT('',(2.5E1,3.25E1,1.E0));
#247=LINE('',#246,#245);
#248=CARTESIAN_POINT('',(2.5E1,2.95E1,1.E0));
#249=DIRECTION('',(0.E0,0.E0,1.E0));
#250=DIRECTION('',(1.E0,0.E0,0.E0));
#251=AXIS2_PLACEMENT_3D('',#248,#249,#250);
#253=DIRECTION('',(0.E0,1.E0,0.E0));
#254=VECTOR('',#253,5.5E0);
#255=CARTESIAN_POINT('',(2.8E1,2.4E1,1.E0));
#256=LINE('',#255,#254);
#257=DIRECTION('',(0.E0,0.E0,1.E0));
#258=VECTOR('',#257,1.E0);
#259=CARTESIAN_POINT('',(2.45E1,-2.75E1,0.E0));
#260=LINE('',#259,#258);
#261=DIRECTION('',(0.E0,0.E0,1.E0));
#262=VECTOR('',#261,1.E0);
#263=CARTESIAN_POINT('',(2.45E1,-3.05E1,0.E0));
#264=LINE('',#263,#262);
#265=DIRECTION('',(0.E0,0.E0,1.E0));
#266=VECTOR('',#265,1.E0);
#267=CARTESIAN_POINT('',(2.45E1,3.05E1,0.E0));
#268=LINE('',#267,#266);
#269=DIRECTION('',(0.E0,0.E0,1.E0));
#270=VECTOR('',#269,1.E0);
#271=CARTESIAN_POINT('',(2.45E1,2.75E1,0.E0));
#272=LINE('',#271,#270);
#273=DIRECTION('',(0.E0,0.E0,1.E0));
#274=VECTOR('',#273,1.E0);
#275=CARTESIAN_POINT('',(-2.45E1,3.05E1,0.E0));
#276=LINE('',#275,#274);
#277=DIRECTION('',(0.E0,0.E0,1.E0));
#278=VECTOR('',#277,1.E0);
#279=CARTESIAN_POINT('',(-2.45E1,2.75E1,0.E0));
#280=LINE('',#279,#278);
#281=DIRECTION('',(0.E0,0.E0,1.E0));
#282=VECTOR('',#281,8.5E0);
#283=CARTESIAN_POINT('',(-2.7E1,2.6E1,1.E0));
#284=LINE('',#283,#282);
#285=DIRECTION('',(0.E0,0.E0,1.E0));
#286=VECTOR('',#285,8.5E0);
#287=CARTESIAN_POINT('',(-2.2E1,2.6E1,1.E0));
#288=LINE('',#287,#286);
#289=DIRECTION('',(0.E0,0.E0,1.E0));
#290=VECTOR('',#289,8.5E0);
#291=CARTESIAN_POINT('',(-2.2E1,-2.6E1,1.E0));
#292=LINE('',#291,#290);
#293=DIRECTION('',(0.E0,0.E0,1.E0));
#294=VECTOR('',#293,8.5E0);
#295=CARTESIAN_POINT('',(-2.7E1,-2.6E1,1.E0));
#296=LINE('',#295,#294);
#297=DIRECTION('',(0.E0,-1.E0,0.E0));
#298=VECTOR('',#297,5.2E1);
#299=CARTESIAN_POINT('',(-2.7E1,2.6E1,9.5E0));
#300=LINE('',#299,#298);
#301=DIRECTION('',(-1.E0,0.E0,0.E0));
#302=VECTOR('',#301,5.E0);
#303=CARTESIAN_POINT('',(-2.2E1,2.6E1,9.5E0));
#304=LINE('',#303,#302);
#305=DIRECTION('',(0.E0,1.E0,0.E0));
#306=VECTOR('',#305,5.2E1);
#307=CARTESIAN_POINT('',(-2.2E1,-2.6E1,9.5E0));
#308=LINE('',#307,#306);
#309=DIRECTION('',(1.E0,0.E0,0.E0));
#310=VECTOR('',#309,5.E0);
#311=CARTESIAN_POINT('',(-2.7E1,-2.6E1,9.5E0));
#312=LINE('',#311,#310);
#313=DIRECTION('',(0.E0,0.E0,1.E0));
#314=VECTOR('',#313,5.5E0);
#315=CARTESIAN_POINT('',(-1.1E1,-2.7E1,1.E0));
#316=LINE('',#315,#314);
#317=DIRECTION('',(0.E0,0.E0,1.E0));
#318=VECTOR('',#317,5.5E0);
#319=CARTESIAN_POINT('',(1.1E1,-2.7E1,1.E0));
#320=LINE('',#319,#318);
#321=DIRECTION('',(0.E0,0.E0,1.E0));
#322=VECTOR('',#321,5.5E0);
#323=CARTESIAN_POINT('',(1.1E1,-3.1E1,1.E0));
#324=LINE('',#323,#322);
#325=DIRECTION('',(0.E0,0.E0,1.E0));
#326=VECTOR('',#325,5.5E0);
#327=CARTESIAN_POINT('',(-1.1E1,-3.1E1,1.E0));
#328=LINE('',#327,#326);
#329=DIRECTION('',(0.E0,-1.E0,0.E0));
#330=VECTOR('',#329,4.E0);
#331=CARTESIAN_POINT('',(-1.1E1,-2.7E1,6.5E0));
#332=LINE('',#331,#330);
#333=DIRECTION('',(-1.E0,0.E0,0.E0));
#334=VECTOR('',#333,2.2E1);
#335=CARTESIAN_POINT('',(1.1E1,-2.7E1,6.5E0));
#336=LINE('',#335,#334);
#337=DIRECTION('',(0.E0,1.E0,0.E0));
#338=VECTOR('',#337,4.E0);
#339=CARTESIAN_POINT('',(1.1E1,-3.1E1,6.5E0));
#340=LINE('',#339,#338);
#341=DIRECTION('',(1.E0,0.E0,0.E0));
#342=VECTOR('',#341,2.2E1);
#343=CARTESIAN_POINT('',(-1.1E1,-3.1E1,6.5E0));
#344=LINE('',#343,#342);
#345=DIRECTION('',(0.E0,-1.E0,0.E0));
#346=VECTOR('',#345,4.E0);
#347=CARTESIAN_POINT('',(5.5E0,1.45E1,6.5E0));
#348=LINE('',#347,#346);
#349=DIRECTION('',(-1.E0,0.E0,0.E0));
#350=VECTOR('',#349,2.2E1);
#351=CARTESIAN_POINT('',(2.75E1,1.45E1,6.5E0));
#352=LINE('',#351,#350);
#353=DIRECTION('',(0.E0,1.E0,0.E0));
#354=VECTOR('',#353,4.E0);
#355=CARTESIAN_POINT('',(2.75E1,1.05E1,6.5E0));
#356=LINE('',#355,#354);
#357=DIRECTION('',(1.E0,0.E0,0.E0));
#358=VECTOR('',#357,2.2E1);
#359=CARTESIAN_POINT('',(5.5E0,1.05E1,6.5E0));
#360=LINE('',#359,#358);
#361=DIRECTION('',(0.E0,0.E0,1.E0));
#362=VECTOR('',#361,5.5E0);
#363=CARTESIAN_POINT('',(5.5E0,1.45E1,1.E0));
#364=LINE('',#363,#362);
#365=DIRECTION('',(0.E0,0.E0,1.E0));
#366=VECTOR('',#365,5.5E0);
#367=CARTESIAN_POINT('',(2.75E1,1.45E1,1.E0));
#368=LINE('',#367,#366);
#369=DIRECTION('',(0.E0,0.E0,1.E0));
#370=VECTOR('',#369,5.5E0);
#371=CARTESIAN_POINT('',(2.75E1,1.05E1,1.E0));
#372=LINE('',#371,#370);
#373=DIRECTION('',(0.E0,0.E0,1.E0));
#374=VECTOR('',#373,5.5E0);
#375=CARTESIAN_POINT('',(5.5E0,1.05E1,1.E0));
#376=LINE('',#375,#374);
#377=DIRECTION('',(0.E0,0.E0,1.E0));
#378=VECTOR('',#377,6.E0);
#379=CARTESIAN_POINT('',(3.25E1,2.4E1,1.E0));
#380=LINE('',#379,#378);
#381=DIRECTION('',(1.E0,0.E0,0.E0));
#382=VECTOR('',#381,4.5E0);
#383=CARTESIAN_POINT('',(2.8E1,1.8E1,1.E0));
#384=LINE('',#383,#382);
#385=DIRECTION('',(0.E0,1.E0,0.E0));
#386=VECTOR('',#385,6.E0);
#387=CARTESIAN_POINT('',(3.25E1,1.8E1,1.E0));
#388=LINE('',#387,#386);
#389=DIRECTION('',(-1.E0,0.E0,0.E0));
#390=VECTOR('',#389,4.5E0);
#391=CARTESIAN_POINT('',(3.25E1,2.4E1,1.E0));
#392=LINE('',#391,#390);
#393=DIRECTION('',(0.E0,1.E0,0.E0));
#394=VECTOR('',#393,6.E0);
#395=CARTESIAN_POINT('',(2.8E1,1.8E1,1.E0));
#396=LINE('',#395,#394);
#397=DIRECTION('',(0.E0,0.E0,1.E0));
#398=VECTOR('',#397,1.E0);
#399=CARTESIAN_POINT('',(2.8E1,-2.95E1,0.E0));
#400=LINE('',#399,#398);
#401=DIRECTION('',(0.E0,1.E0,0.E0));
#402=VECTOR('',#401,1.5E1);
#403=CARTESIAN_POINT('',(2.8E1,-8.E0,1.E0));
#404=LINE('',#403,#402);
#405=DIRECTION('',(0.E0,0.E0,1.E0));
#406=VECTOR('',#405,1.E0);
#407=CARTESIAN_POINT('',(2.8E1,2.95E1,0.E0));
#408=LINE('',#407,#406);
#409=DIRECTION('',(-1.E0,0.E0,0.E0));
#410=VECTOR('',#409,1.E1);
#411=CARTESIAN_POINT('',(1.55E0,3.25E1,1.E0));
#412=LINE('',#411,#410);
#413=DIRECTION('',(0.E0,0.E0,1.E0));
#414=VECTOR('',#413,1.E0);
#415=CARTESIAN_POINT('',(2.5E1,3.25E1,0.E0));
#416=LINE('',#415,#414);
#417=DIRECTION('',(0.E0,1.E0,0.E0));
#418=VECTOR('',#417,1.5E0);
#419=CARTESIAN_POINT('',(1.55E0,3.25E1,1.E0));
#420=LINE('',#419,#418);
#421=DIRECTION('',(-1.E0,0.E0,0.E0));
#422=VECTOR('',#421,1.E1);
#423=CARTESIAN_POINT('',(1.55E0,3.4E1,1.E0));
#424=LINE('',#423,#422);
#425=DIRECTION('',(0.E0,-1.E0,0.E0));
#426=VECTOR('',#425,1.5E0);
#427=CARTESIAN_POINT('',(-8.45E0,3.4E1,1.E0));
#428=LINE('',#427,#426);
#429=DIRECTION('',(0.E0,0.E0,1.E0));
#430=VECTOR('',#429,7.1E0);
#431=CARTESIAN_POINT('',(1.55E0,2.2E1,1.E0));
#432=LINE('',#431,#430);
#433=DIRECTION('',(0.E0,0.E0,1.E0));
#434=VECTOR('',#433,7.1E0);
#435=CARTESIAN_POINT('',(-8.45E0,2.2E1,1.E0));
#436=LINE('',#435,#434);
#437=DIRECTION('',(0.E0,0.E0,1.E0));
#438=VECTOR('',#437,7.1E0);
#439=CARTESIAN_POINT('',(-8.45E0,3.4E1,1.E0));
#440=LINE('',#439,#438);
#441=DIRECTION('',(0.E0,0.E0,1.E0));
#442=VECTOR('',#441,7.1E0);
#443=CARTESIAN_POINT('',(1.55E0,3.4E1,1.E0));
#444=LINE('',#443,#442);
#445=DIRECTION('',(-1.E0,0.E0,0.E0));
#446=VECTOR('',#445,1.E1);
#447=CARTESIAN_POINT('',(1.55E0,3.4E1,8.1E0));
#448=LINE('',#447,#446);
#449=DIRECTION('',(0.E0,1.E0,0.E0));
#450=VECTOR('',#449,1.2E1);
#451=CARTESIAN_POINT('',(1.55E0,2.2E1,8.1E0));
#452=LINE('',#451,#450);
#453=DIRECTION('',(1.E0,0.E0,0.E0));
#454=VECTOR('',#453,1.E1);
#455=CARTESIAN_POINT('',(-8.45E0,2.2E1,8.1E0));
#456=LINE('',#455,#454);
#457=DIRECTION('',(0.E0,-1.E0,0.E0));
#458=VECTOR('',#457,1.2E1);
#459=CARTESIAN_POINT('',(-8.45E0,3.4E1,8.1E0));
#460=LINE('',#459,#458);
#461=DIRECTION('',(0.E0,0.E0,1.E0));
#462=VECTOR('',#461,1.E0);
#463=CARTESIAN_POINT('',(-2.5E1,3.25E1,0.E0));
#464=LINE('',#463,#462);
#465=DIRECTION('',(0.E0,0.E0,1.E0));
#466=VECTOR('',#465,1.E0);
#467=CARTESIAN_POINT('',(-2.8E1,2.95E1,0.E0));
#468=LINE('',#467,#466);
#469=DIRECTION('',(0.E0,0.E0,1.E0));
#470=VECTOR('',#469,1.E0);
#471=CARTESIAN_POINT('',(-2.8E1,-2.95E1,0.E0));
#472=LINE('',#471,#470);
#473=DIRECTION('',(0.E0,0.E0,1.E0));
#474=VECTOR('',#473,1.E0);
#475=CARTESIAN_POINT('',(-2.5E1,-3.25E1,0.E0));
#476=LINE('',#475,#474);
#477=DIRECTION('',(0.E0,0.E0,1.E0));
#478=VECTOR('',#477,1.E0);
#479=CARTESIAN_POINT('',(2.5E1,-3.25E1,0.E0));
#480=LINE('',#479,#478);
#481=DIRECTION('',(1.E0,0.E0,0.E0));
#482=VECTOR('',#481,1.E0);
#483=CARTESIAN_POINT('',(2.8E1,-8.E0,1.E0));
#484=LINE('',#483,#482);
#485=DIRECTION('',(0.E0,1.E0,0.E0));
#486=VECTOR('',#485,1.5E1);
#487=CARTESIAN_POINT('',(2.9E1,-8.E0,1.E0));
#488=LINE('',#487,#486);
#489=DIRECTION('',(-1.E0,0.E0,0.E0));
#490=VECTOR('',#489,1.E0);
#491=CARTESIAN_POINT('',(2.9E1,7.E0,1.E0));
#492=LINE('',#491,#490);
#493=DIRECTION('',(0.E0,0.E0,1.E0));
#494=VECTOR('',#493,6.5E0);
#495=CARTESIAN_POINT('',(1.7E1,-8.E0,1.E0));
#496=LINE('',#495,#494);
#497=DIRECTION('',(0.E0,0.E0,1.E0));
#498=VECTOR('',#497,6.5E0);
#499=CARTESIAN_POINT('',(1.7E1,7.E0,1.E0));
#500=LINE('',#499,#498);
#501=DIRECTION('',(0.E0,0.E0,1.E0));
#502=VECTOR('',#501,6.5E0);
#503=CARTESIAN_POINT('',(2.9E1,7.E0,1.E0));
#504=LINE('',#503,#502);
#505=DIRECTION('',(0.E0,0.E0,1.E0));
#506=VECTOR('',#505,6.5E0);
#507=CARTESIAN_POINT('',(2.9E1,-8.E0,1.E0));
#508=LINE('',#507,#506);
#509=DIRECTION('',(-1.E0,0.E0,0.E0));
#510=VECTOR('',#509,1.2E1);
#511=CARTESIAN_POINT('',(2.9E1,7.E0,7.5E0));
#512=LINE('',#511,#510);
#513=DIRECTION('',(0.E0,1.E0,0.E0));
#514=VECTOR('',#513,1.5E1);
#515=CARTESIAN_POINT('',(2.9E1,-8.E0,7.5E0));
#516=LINE('',#515,#514);
#517=DIRECTION('',(1.E0,0.E0,0.E0));
#518=VECTOR('',#517,1.2E1);
#519=CARTESIAN_POINT('',(1.7E1,-8.E0,7.5E0));
#520=LINE('',#519,#518);
#521=DIRECTION('',(0.E0,-1.E0,0.E0));
#522=VECTOR('',#521,1.5E1);
#523=CARTESIAN_POINT('',(1.7E1,7.E0,7.5E0));
#524=LINE('',#523,#522);
#525=DIRECTION('',(0.E0,0.E0,1.E0));
#526=VECTOR('',#525,6.E0);
#527=CARTESIAN_POINT('',(1.55E1,1.8E1,1.E0));
#528=LINE('',#527,#526);
#529=DIRECTION('',(0.E0,0.E0,1.E0));
#530=VECTOR('',#529,6.E0);
#531=CARTESIAN_POINT('',(1.55E1,2.4E1,1.E0));
#532=LINE('',#531,#530);
#533=DIRECTION('',(0.E0,1.E0,0.E0));
#534=VECTOR('',#533,6.E0);
#535=CARTESIAN_POINT('',(3.25E1,1.8E1,7.E0));
#536=LINE('',#535,#534);
#537=DIRECTION('',(1.E0,0.E0,0.E0));
#538=VECTOR('',#537,1.7E1);
#539=CARTESIAN_POINT('',(1.55E1,1.8E1,7.E0));
#540=LINE('',#539,#538);
#541=DIRECTION('',(0.E0,-1.E0,0.E0));
#542=VECTOR('',#541,6.E0);
#543=CARTESIAN_POINT('',(1.55E1,2.4E1,7.E0));
#544=LINE('',#543,#542);
#545=DIRECTION('',(-1.E0,0.E0,0.E0));
#546=VECTOR('',#545,1.7E1);
#547=CARTESIAN_POINT('',(3.25E1,2.4E1,7.E0));
#548=LINE('',#547,#546);
#549=DIRECTION('',(0.E0,0.E0,1.E0));
#550=VECTOR('',#549,6.E0);
#551=CARTESIAN_POINT('',(3.25E1,1.8E1,1.E0));
#552=LINE('',#551,#550);
#553=CARTESIAN_POINT('',(-2.45E1,-2.75E1,0.E0));
#554=CARTESIAN_POINT('',(-2.45E1,-3.05E1,0.E0));
#555=VERTEX_POINT('',#553);
#556=VERTEX_POINT('',#554);
#557=CARTESIAN_POINT('',(2.45E1,-2.75E1,0.E0));
#558=CARTESIAN_POINT('',(2.45E1,-3.05E1,0.E0));
#559=VERTEX_POINT('',#557);
#560=VERTEX_POINT('',#558);
#561=CARTESIAN_POINT('',(2.45E1,3.05E1,0.E0));
#562=CARTESIAN_POINT('',(2.45E1,2.75E1,0.E0));
#563=VERTEX_POINT('',#561);
#564=VERTEX_POINT('',#562);
#565=CARTESIAN_POINT('',(-2.45E1,3.05E1,0.E0));
#566=CARTESIAN_POINT('',(-2.45E1,2.75E1,0.E0));
#567=VERTEX_POINT('',#565);
#568=VERTEX_POINT('',#566);
#569=CARTESIAN_POINT('',(-2.8E1,2.95E1,0.E0));
#570=CARTESIAN_POINT('',(-2.8E1,-2.95E1,0.E0));
#571=VERTEX_POINT('',#569);
#572=VERTEX_POINT('',#570);
#573=CARTESIAN_POINT('',(-2.5E1,-3.25E1,0.E0));
#574=VERTEX_POINT('',#573);
#575=CARTESIAN_POINT('',(2.5E1,-3.25E1,0.E0));
#576=VERTEX_POINT('',#575);
#577=CARTESIAN_POINT('',(2.8E1,-2.95E1,0.E0));
#578=VERTEX_POINT('',#577);
#579=CARTESIAN_POINT('',(2.8E1,2.95E1,0.E0));
#580=VERTEX_POINT('',#579);
#581=CARTESIAN_POINT('',(2.5E1,3.25E1,0.E0));
#582=VERTEX_POINT('',#581);
#583=CARTESIAN_POINT('',(-2.5E1,3.25E1,0.E0));
#584=VERTEX_POINT('',#583);
#585=CARTESIAN_POINT('',(-2.45E1,-2.75E1,1.E0));
#586=CARTESIAN_POINT('',(-2.45E1,-3.05E1,1.E0));
#587=VERTEX_POINT('',#585);
#588=VERTEX_POINT('',#586);
#589=CARTESIAN_POINT('',(2.45E1,-2.75E1,1.E0));
#590=CARTESIAN_POINT('',(2.45E1,-3.05E1,1.E0));
#591=VERTEX_POINT('',#589);
#592=VERTEX_POINT('',#590);
#593=CARTESIAN_POINT('',(2.45E1,3.05E1,1.E0));
#594=CARTESIAN_POINT('',(2.45E1,2.75E1,1.E0));
#595=VERTEX_POINT('',#593);
#596=VERTEX_POINT('',#594);
#597=CARTESIAN_POINT('',(-2.45E1,3.05E1,1.E0));
#598=CARTESIAN_POINT('',(-2.45E1,2.75E1,1.E0));
#599=VERTEX_POINT('',#597);
#600=VERTEX_POINT('',#598);
#601=CARTESIAN_POINT('',(-2.8E1,2.95E1,1.E0));
#602=CARTESIAN_POINT('',(-2.8E1,-2.95E1,1.E0));
#603=VERTEX_POINT('',#601);
#604=VERTEX_POINT('',#602);
#605=CARTESIAN_POINT('',(-2.5E1,-3.25E1,1.E0));
#606=VERTEX_POINT('',#605);
#607=CARTESIAN_POINT('',(2.5E1,-3.25E1,1.E0));
#608=VERTEX_POINT('',#607);
#609=CARTESIAN_POINT('',(2.8E1,-2.95E1,1.E0));
#610=VERTEX_POINT('',#609);
#611=CARTESIAN_POINT('',(2.8E1,2.95E1,1.E0));
#612=CARTESIAN_POINT('',(2.5E1,3.25E1,1.E0));
#613=VERTEX_POINT('',#611);
#614=VERTEX_POINT('',#612);
#615=CARTESIAN_POINT('',(-2.5E1,3.25E1,1.E0));
#616=VERTEX_POINT('',#615);
#617=CARTESIAN_POINT('',(-2.7E1,2.6E1,9.5E0));
#618=CARTESIAN_POINT('',(-2.7E1,-2.6E1,9.5E0));
#619=VERTEX_POINT('',#617);
#620=VERTEX_POINT('',#618);
#621=CARTESIAN_POINT('',(-2.2E1,-2.6E1,9.5E0));
#622=VERTEX_POINT('',#621);
#623=CARTESIAN_POINT('',(-2.2E1,2.6E1,9.5E0));
#624=VERTEX_POINT('',#623);
#625=CARTESIAN_POINT('',(-2.7E1,2.6E1,1.E0));
#626=CARTESIAN_POINT('',(-2.7E1,-2.6E1,1.E0));
#627=VERTEX_POINT('',#625);
#628=VERTEX_POINT('',#626);
#629=CARTESIAN_POINT('',(-2.2E1,-2.6E1,1.E0));
#630=VERTEX_POINT('',#629);
#631=CARTESIAN_POINT('',(-2.2E1,2.6E1,1.E0));
#632=VERTEX_POINT('',#631);
#633=CARTESIAN_POINT('',(-1.1E1,-2.7E1,6.5E0));
#634=CARTESIAN_POINT('',(-1.1E1,-3.1E1,6.5E0));
#635=VERTEX_POINT('',#633);
#636=VERTEX_POINT('',#634);
#637=CARTESIAN_POINT('',(1.1E1,-3.1E1,6.5E0));
#638=VERTEX_POINT('',#637);
#639=CARTESIAN_POINT('',(1.1E1,-2.7E1,6.5E0));
#640=VERTEX_POINT('',#639);
#641=CARTESIAN_POINT('',(5.5E0,1.45E1,6.5E0));
#642=CARTESIAN_POINT('',(5.5E0,1.05E1,6.5E0));
#643=VERTEX_POINT('',#641);
#644=VERTEX_POINT('',#642);
#645=CARTESIAN_POINT('',(2.75E1,1.05E1,6.5E0));
#646=VERTEX_POINT('',#645);
#647=CARTESIAN_POINT('',(2.75E1,1.45E1,6.5E0));
#648=VERTEX_POINT('',#647);
#649=CARTESIAN_POINT('',(-1.1E1,-2.7E1,1.E0));
#650=CARTESIAN_POINT('',(-1.1E1,-3.1E1,1.E0));
#651=VERTEX_POINT('',#649);
#652=VERTEX_POINT('',#650);
#653=CARTESIAN_POINT('',(1.1E1,-3.1E1,1.E0));
#654=VERTEX_POINT('',#653);
#655=CARTESIAN_POINT('',(1.1E1,-2.7E1,1.E0));
#656=VERTEX_POINT('',#655);
#657=CARTESIAN_POINT('',(5.5E0,1.45E1,1.E0));
#658=CARTESIAN_POINT('',(5.5E0,1.05E1,1.E0));
#659=VERTEX_POINT('',#657);
#660=VERTEX_POINT('',#658);
#661=CARTESIAN_POINT('',(2.75E1,1.05E1,1.E0));
#662=VERTEX_POINT('',#661);
#663=CARTESIAN_POINT('',(2.75E1,1.45E1,1.E0));
#664=VERTEX_POINT('',#663);
#665=CARTESIAN_POINT('',(1.55E0,3.4E1,1.E0));
#666=CARTESIAN_POINT('',(-8.45E0,3.4E1,1.E0));
#667=VERTEX_POINT('',#665);
#668=VERTEX_POINT('',#666);
#669=CARTESIAN_POINT('',(1.55E0,3.4E1,8.1E0));
#670=CARTESIAN_POINT('',(-8.45E0,3.4E1,8.1E0));
#671=VERTEX_POINT('',#669);
#672=VERTEX_POINT('',#670);
#673=CARTESIAN_POINT('',(-8.45E0,2.2E1,8.1E0));
#674=VERTEX_POINT('',#673);
#675=CARTESIAN_POINT('',(1.55E0,2.2E1,8.1E0));
#676=VERTEX_POINT('',#675);
#677=CARTESIAN_POINT('',(-8.45E0,3.25E1,1.E0));
#678=CARTESIAN_POINT('',(-8.45E0,2.2E1,1.E0));
#679=VERTEX_POINT('',#677);
#680=VERTEX_POINT('',#678);
#681=CARTESIAN_POINT('',(1.55E0,2.2E1,1.E0));
#682=VERTEX_POINT('',#681);
#683=CARTESIAN_POINT('',(1.55E0,3.25E1,1.E0));
#684=VERTEX_POINT('',#683);
#685=CARTESIAN_POINT('',(2.9E1,-8.E0,1.E0));
#686=CARTESIAN_POINT('',(2.9E1,7.E0,1.E0));
#687=VERTEX_POINT('',#685);
#688=VERTEX_POINT('',#686);
#689=CARTESIAN_POINT('',(2.9E1,7.E0,7.5E0));
#690=CARTESIAN_POINT('',(1.7E1,7.E0,7.5E0));
#691=VERTEX_POINT('',#689);
#692=VERTEX_POINT('',#690);
#693=CARTESIAN_POINT('',(1.7E1,-8.E0,7.5E0));
#694=VERTEX_POINT('',#693);
#695=CARTESIAN_POINT('',(2.9E1,-8.E0,7.5E0));
#696=VERTEX_POINT('',#695);
#697=CARTESIAN_POINT('',(2.8E1,7.E0,1.E0));
#698=CARTESIAN_POINT('',(1.7E1,7.E0,1.E0));
#699=VERTEX_POINT('',#697);
#700=VERTEX_POINT('',#698);
#701=CARTESIAN_POINT('',(1.7E1,-8.E0,1.E0));
#702=VERTEX_POINT('',#701);
#703=CARTESIAN_POINT('',(2.8E1,-8.E0,1.E0));
#704=VERTEX_POINT('',#703);
#705=CARTESIAN_POINT('',(3.25E1,1.8E1,1.E0));
#706=CARTESIAN_POINT('',(3.25E1,2.4E1,1.E0));
#707=VERTEX_POINT('',#705);
#708=VERTEX_POINT('',#706);
#709=CARTESIAN_POINT('',(3.25E1,1.8E1,7.E0));
#710=CARTESIAN_POINT('',(3.25E1,2.4E1,7.E0));
#711=VERTEX_POINT('',#709);
#712=VERTEX_POINT('',#710);
#713=CARTESIAN_POINT('',(1.55E1,2.4E1,7.E0));
#714=VERTEX_POINT('',#713);
#715=CARTESIAN_POINT('',(1.55E1,1.8E1,7.E0));
#716=VERTEX_POINT('',#715);
#717=CARTESIAN_POINT('',(2.8E1,2.4E1,1.E0));
#718=CARTESIAN_POINT('',(1.55E1,2.4E1,1.E0));
#719=VERTEX_POINT('',#717);
#720=VERTEX_POINT('',#718);
#721=CARTESIAN_POINT('',(1.55E1,1.8E1,1.E0));
#722=VERTEX_POINT('',#721);
#723=CARTESIAN_POINT('',(2.8E1,1.8E1,1.E0));
#724=VERTEX_POINT('',#723);
#725=CARTESIAN_POINT('',(0.E0,0.E0,0.E0));
#726=DIRECTION('',(0.E0,0.E0,1.E0));
#727=DIRECTION('',(0.E0,1.E0,0.E0));
#728=AXIS2_PLACEMENT_3D('',#725,#726,#727);
#729=PLANE('',#728);
#731=ORIENTED_EDGE('',*,*,#730,.T.);
#733=ORIENTED_EDGE('',*,*,#732,.T.);
#735=ORIENTED_EDGE('',*,*,#734,.T.);
#737=ORIENTED_EDGE('',*,*,#736,.T.);
#739=ORIENTED_EDGE('',*,*,#738,.T.);
#741=ORIENTED_EDGE('',*,*,#740,.T.);
#743=ORIENTED_EDGE('',*,*,#742,.T.);
#745=ORIENTED_EDGE('',*,*,#744,.T.);
#746=EDGE_LOOP('',(#731,#733,#735,#737,#739,#741,#743,#745));
#747=FACE_OUTER_BOUND('',#746,.F.);
#749=ORIENTED_EDGE('',*,*,#748,.T.);
#751=ORIENTED_EDGE('',*,*,#750,.T.);
#752=EDGE_LOOP('',(#749,#751));
#753=FACE_BOUND('',#752,.F.);
#755=ORIENTED_EDGE('',*,*,#754,.T.);
#757=ORIENTED_EDGE('',*,*,#756,.T.);
#758=EDGE_LOOP('',(#755,#757));
#759=FACE_BOUND('',#758,.F.);
#761=ORIENTED_EDGE('',*,*,#760,.T.);
#763=ORIENTED_EDGE('',*,*,#762,.T.);
#764=EDGE_LOOP('',(#761,#763));
#765=FACE_BOUND('',#764,.F.);
#767=ORIENTED_EDGE('',*,*,#766,.T.);
#769=ORIENTED_EDGE('',*,*,#768,.T.);
#770=EDGE_LOOP('',(#767,#769));
#771=FACE_BOUND('',#770,.F.);
#772=ADVANCED_FACE('',(#747,#753,#759,#765,#771),#729,.F.);
#773=CARTESIAN_POINT('',(-2.45E1,-2.9E1,0.E0));
#774=DIRECTION('',(0.E0,0.E0,1.E0));
#775=DIRECTION('',(0.E0,1.E0,0.E0));
#776=AXIS2_PLACEMENT_3D('',#773,#774,#775);
#777=CYLINDRICAL_SURFACE('',#776,1.5E0);
#778=ORIENTED_EDGE('',*,*,#766,.F.);
#780=ORIENTED_EDGE('',*,*,#779,.T.);
#782=ORIENTED_EDGE('',*,*,#781,.T.);
#784=ORIENTED_EDGE('',*,*,#783,.F.);
#785=EDGE_LOOP('',(#778,#780,#782,#784));
#786=FACE_OUTER_BOUND('',#785,.F.);
#787=ADVANCED_FACE('',(#786),#777,.F.);
#788=CARTESIAN_POINT('',(-2.45E1,-2.9E1,0.E0));
#789=DIRECTION('',(0.E0,0.E0,1.E0));
#790=DIRECTION('',(0.E0,1.E0,0.E0));
#791=AXIS2_PLACEMENT_3D('',#788,#789,#790);
#792=CYLINDRICAL_SURFACE('',#791,1.5E0);
#793=ORIENTED_EDGE('',*,*,#768,.F.);
#794=ORIENTED_EDGE('',*,*,#783,.T.);
#796=ORIENTED_EDGE('',*,*,#795,.T.);
#797=ORIENTED_EDGE('',*,*,#779,.F.);
#798=EDGE_LOOP('',(#793,#794,#796,#797));
#799=FACE_OUTER_BOUND('',#798,.F.);
#800=ADVANCED_FACE('',(#799),#792,.F.);
#801=CARTESIAN_POINT('',(0.E0,0.E0,1.E0));
#802=DIRECTION('',(0.E0,0.E0,1.E0));
#803=DIRECTION('',(0.E0,1.E0,0.E0));
#804=AXIS2_PLACEMENT_3D('',#801,#802,#803);
#805=PLANE('',#804);
#807=ORIENTED_EDGE('',*,*,#806,.T.);
#809=ORIENTED_EDGE('',*,*,#808,.T.);
#811=ORIENTED_EDGE('',*,*,#810,.F.);
#813=ORIENTED_EDGE('',*,*,#812,.F.);
#815=ORIENTED_EDGE('',*,*,#814,.T.);
#817=ORIENTED_EDGE('',*,*,#816,.T.);
#819=ORIENTED_EDGE('',*,*,#818,.F.);
#821=ORIENTED_EDGE('',*,*,#820,.F.);
#823=ORIENTED_EDGE('',*,*,#822,.F.);
#825=ORIENTED_EDGE('',*,*,#824,.F.);
#827=ORIENTED_EDGE('',*,*,#826,.F.);
#829=ORIENTED_EDGE('',*,*,#828,.F.);
#831=ORIENTED_EDGE('',*,*,#830,.F.);
#833=ORIENTED_EDGE('',*,*,#832,.F.);
#835=ORIENTED_EDGE('',*,*,#834,.T.);
#837=ORIENTED_EDGE('',*,*,#836,.T.);
#839=ORIENTED_EDGE('',*,*,#838,.F.);
#841=ORIENTED_EDGE('',*,*,#840,.F.);
#843=ORIENTED_EDGE('',*,*,#842,.F.);
#845=ORIENTED_EDGE('',*,*,#844,.F.);
#846=EDGE_LOOP('',(#807,#809,#811,#813,#815,#817,#819,#821,#823,#825,#827,#829,
#831,#833,#835,#837,#839,#841,#843,#845));
#847=FACE_OUTER_BOUND('',#846,.F.);
#849=ORIENTED_EDGE('',*,*,#848,.F.);
#851=ORIENTED_EDGE('',*,*,#850,.F.);
#852=EDGE_LOOP('',(#849,#851));
#853=FACE_BOUND('',#852,.F.);
#855=ORIENTED_EDGE('',*,*,#854,.F.);
#857=ORIENTED_EDGE('',*,*,#856,.F.);
#858=EDGE_LOOP('',(#855,#857));
#859=FACE_BOUND('',#858,.F.);
#861=ORIENTED_EDGE('',*,*,#860,.F.);
#863=ORIENTED_EDGE('',*,*,#862,.F.);
#864=EDGE_LOOP('',(#861,#863));
#865=FACE_BOUND('',#864,.F.);
#867=ORIENTED_EDGE('',*,*,#866,.T.);
#869=ORIENTED_EDGE('',*,*,#868,.T.);
#871=ORIENTED_EDGE('',*,*,#870,.T.);
#873=ORIENTED_EDGE('',*,*,#872,.T.);
#874=EDGE_LOOP('',(#867,#869,#871,#873));
#875=FACE_BOUND('',#874,.F.);
#877=ORIENTED_EDGE('',*,*,#876,.T.);
#879=ORIENTED_EDGE('',*,*,#878,.T.);
#881=ORIENTED_EDGE('',*,*,#880,.T.);
#883=ORIENTED_EDGE('',*,*,#882,.T.);
#884=EDGE_LOOP('',(#877,#879,#881,#883));
#885=FACE_BOUND('',#884,.F.);
#887=ORIENTED_EDGE('',*,*,#886,.T.);
#889=ORIENTED_EDGE('',*,*,#888,.T.);
#891=ORIENTED_EDGE('',*,*,#890,.T.);
#893=ORIENTED_EDGE('',*,*,#892,.T.);
#894=EDGE_LOOP('',(#887,#889,#891,#893));
#895=FACE_BOUND('',#894,.F.);
#896=ORIENTED_EDGE('',*,*,#781,.F.);
#897=ORIENTED_EDGE('',*,*,#795,.F.);
#898=EDGE_LOOP('',(#896,#897));
#899=FACE_BOUND('',#898,.F.);
#900=ADVANCED_FACE('',(#847,#853,#859,#865,#875,#885,#895,#899),#805,.T.);
#901=CARTESIAN_POINT('',(2.45E1,-2.9E1,0.E0));
#902=DIRECTION('',(0.E0,0.E0,1.E0));
#903=DIRECTION('',(0.E0,1.E0,0.E0));
#904=AXIS2_PLACEMENT_3D('',#901,#902,#903);
#905=CYLINDRICAL_SURFACE('',#904,1.5E0);
#906=ORIENTED_EDGE('',*,*,#748,.F.);
#908=ORIENTED_EDGE('',*,*,#907,.T.);
#909=ORIENTED_EDGE('',*,*,#848,.T.);
#911=ORIENTED_EDGE('',*,*,#910,.F.);
#912=EDGE_LOOP('',(#906,#908,#909,#911));
#913=FACE_OUTER_BOUND('',#912,.F.);
#914=ADVANCED_FACE('',(#913),#905,.F.);
#915=CARTESIAN_POINT('',(2.45E1,-2.9E1,0.E0));
#916=DIRECTION('',(0.E0,0.E0,1.E0));
#917=DIRECTION('',(0.E0,1.E0,0.E0));
#918=AXIS2_PLACEMENT_3D('',#915,#916,#917);
#919=CYLINDRICAL_SURFACE('',#918,1.5E0);
#920=ORIENTED_EDGE('',*,*,#750,.F.);
#921=ORIENTED_EDGE('',*,*,#910,.T.);
#922=ORIENTED_EDGE('',*,*,#850,.T.);
#923=ORIENTED_EDGE('',*,*,#907,.F.);
#924=EDGE_LOOP('',(#920,#921,#922,#923));
#925=FACE_OUTER_BOUND('',#924,.F.);
#926=ADVANCED_FACE('',(#925),#919,.F.);
#927=CARTESIAN_POINT('',(2.45E1,2.9E1,0.E0));
#928=DIRECTION('',(0.E0,0.E0,1.E0));
#929=DIRECTION('',(0.E0,1.E0,0.E0));
#930=AXIS2_PLACEMENT_3D('',#927,#928,#929);
#931=CYLINDRICAL_SURFACE('',#930,1.5E0);
#932=ORIENTED_EDGE('',*,*,#754,.F.);
#934=ORIENTED_EDGE('',*,*,#933,.T.);
#935=ORIENTED_EDGE('',*,*,#854,.T.);
#937=ORIENTED_EDGE('',*,*,#936,.F.);
#938=EDGE_LOOP('',(#932,#934,#935,#937));
#939=FACE_OUTER_BOUND('',#938,.F.);
#940=ADVANCED_FACE('',(#939),#931,.F.);
#941=CARTESIAN_POINT('',(2.45E1,2.9E1,0.E0));
#942=DIRECTION('',(0.E0,0.E0,1.E0));
#943=DIRECTION('',(0.E0,1.E0,0.E0));
#944=AXIS2_PLACEMENT_3D('',#941,#942,#943);
#945=CYLINDRICAL_SURFACE('',#944,1.5E0);
#946=ORIENTED_EDGE('',*,*,#756,.F.);
#947=ORIENTED_EDGE('',*,*,#936,.T.);
#948=ORIENTED_EDGE('',*,*,#856,.T.);
#949=ORIENTED_EDGE('',*,*,#933,.F.);
#950=EDGE_LOOP('',(#946,#947,#948,#949));
#951=FACE_OUTER_BOUND('',#950,.F.);
#952=ADVANCED_FACE('',(#951),#945,.F.);
#953=CARTESIAN_POINT('',(-2.45E1,2.9E1,0.E0));
#954=DIRECTION('',(0.E0,0.E0,1.E0));
#955=DIRECTION('',(0.E0,1.E0,0.E0));
#956=AXIS2_PLACEMENT_3D('',#953,#954,#955);
#957=CYLINDRICAL_SURFACE('',#956,1.5E0);
#958=ORIENTED_EDGE('',*,*,#760,.F.);
#960=ORIENTED_EDGE('',*,*,#959,.T.);
#961=ORIENTED_EDGE('',*,*,#860,.T.);
#963=ORIENTED_EDGE('',*,*,#962,.F.);
#964=EDGE_LOOP('',(#958,#960,#961,#963));
#965=FACE_OUTER_BOUND('',#964,.F.);
#966=ADVANCED_FACE('',(#965),#957,.F.);
#967=CARTESIAN_POINT('',(-2.45E1,2.9E1,0.E0));
#968=DIRECTION('',(0.E0,0.E0,1.E0));
#969=DIRECTION('',(0.E0,1.E0,0.E0));
#970=AXIS2_PLACEMENT_3D('',#967,#968,#969);
#971=CYLINDRICAL_SURFACE('',#970,1.5E0);
#972=ORIENTED_EDGE('',*,*,#762,.F.);
#973=ORIENTED_EDGE('',*,*,#962,.T.);
#974=ORIENTED_EDGE('',*,*,#862,.T.);
#975=ORIENTED_EDGE('',*,*,#959,.F.);
#976=EDGE_LOOP('',(#972,#973,#974,#975));
#977=FACE_OUTER_BOUND('',#976,.F.);
#978=ADVANCED_FACE('',(#977),#971,.F.);
#979=CARTESIAN_POINT('',(-2.7E1,2.6E1,1.E0));
#980=DIRECTION('',(-1.E0,0.E0,0.E0));
#981=DIRECTION('',(0.E0,-1.E0,0.E0));
#982=AXIS2_PLACEMENT_3D('',#979,#980,#981);
#983=PLANE('',#982);
#984=ORIENTED_EDGE('',*,*,#866,.F.);
#986=ORIENTED_EDGE('',*,*,#985,.T.);
#988=ORIENTED_EDGE('',*,*,#987,.T.);
#990=ORIENTED_EDGE('',*,*,#989,.F.);
#991=EDGE_LOOP('',(#984,#986,#988,#990));
#992=FACE_OUTER_BOUND('',#991,.F.);
#993=ADVANCED_FACE('',(#992),#983,.T.);
#994=CARTESIAN_POINT('',(-2.2E1,2.6E1,1.E0));
#995=DIRECTION('',(0.E0,1.E0,0.E0));
#996=DIRECTION('',(-1.E0,0.E0,0.E0));
#997=AXIS2_PLACEMENT_3D('',#994,#995,#996);
#998=PLANE('',#997);
#999=ORIENTED_EDGE('',*,*,#872,.F.);
#1001=ORIENTED_EDGE('',*,*,#1000,.T.);
#1003=ORIENTED_EDGE('',*,*,#1002,.T.);
#1004=ORIENTED_EDGE('',*,*,#985,.F.);
#1005=EDGE_LOOP('',(#999,#1001,#1003,#1004));
#1006=FACE_OUTER_BOUND('',#1005,.F.);
#1007=ADVANCED_FACE('',(#1006),#998,.T.);
#1008=CARTESIAN_POINT('',(-2.2E1,-2.6E1,1.E0));
#1009=DIRECTION('',(1.E0,0.E0,0.E0));
#1010=DIRECTION('',(0.E0,1.E0,0.E0));
#1011=AXIS2_PLACEMENT_3D('',#1008,#1009,#1010);
#1012=PLANE('',#1011);
#1013=ORIENTED_EDGE('',*,*,#870,.F.);
#1015=ORIENTED_EDGE('',*,*,#1014,.T.);
#1017=ORIENTED_EDGE('',*,*,#1016,.T.);
#1018=ORIENTED_EDGE('',*,*,#1000,.F.);
#1019=EDGE_LOOP('',(#1013,#1015,#1017,#1018));
#1020=FACE_OUTER_BOUND('',#1019,.F.);
#1021=ADVANCED_FACE('',(#1020),#1012,.T.);
#1022=CARTESIAN_POINT('',(-2.7E1,-2.6E1,1.E0));
#1023=DIRECTION('',(0.E0,-1.E0,0.E0));
#1024=DIRECTION('',(1.E0,0.E0,0.E0));
#1025=AXIS2_PLACEMENT_3D('',#1022,#1023,#1024);
#1026=PLANE('',#1025);
#1027=ORIENTED_EDGE('',*,*,#868,.F.);
#1028=ORIENTED_EDGE('',*,*,#989,.T.);
#1030=ORIENTED_EDGE('',*,*,#1029,.T.);
#1031=ORIENTED_EDGE('',*,*,#1014,.F.);
#1032=EDGE_LOOP('',(#1027,#1028,#1030,#1031));
#1033=FACE_OUTER_BOUND('',#1032,.F.);
#1034=ADVANCED_FACE('',(#1033),#1026,.T.);
#1035=CARTESIAN_POINT('',(0.E0,0.E0,9.5E0));
#1036=DIRECTION('',(0.E0,0.E0,1.E0));
#1037=DIRECTION('',(0.E0,1.E0,0.E0));
#1038=AXIS2_PLACEMENT_3D('',#1035,#1036,#1037);
#1039=PLANE('',#1038);
#1040=ORIENTED_EDGE('',*,*,#987,.F.);
#1041=ORIENTED_EDGE('',*,*,#1002,.F.);
#1042=ORIENTED_EDGE('',*,*,#1016,.F.);
#1043=ORIENTED_EDGE('',*,*,#1029,.F.);
#1044=EDGE_LOOP('',(#1040,#1041,#1042,#1043));
#1045=FACE_OUTER_BOUND('',#1044,.F.);
#1046=ADVANCED_FACE('',(#1045),#1039,.T.);
#1047=CARTESIAN_POINT('',(-1.1E1,-2.7E1,1.E0));
#1048=DIRECTION('',(-1.E0,0.E0,0.E0));
#1049=DIRECTION('',(0.E0,-1.E0,0.E0));
#1050=AXIS2_PLACEMENT_3D('',#1047,#1048,#1049);
#1051=PLANE('',#1050);
#1052=ORIENTED_EDGE('',*,*,#876,.F.);
#1054=ORIENTED_EDGE('',*,*,#1053,.T.);
#1056=ORIENTED_EDGE('',*,*,#1055,.T.);
#1058=ORIENTED_EDGE('',*,*,#1057,.F.);
#1059=EDGE_LOOP('',(#1052,#1054,#1056,#1058));
#1060=FACE_OUTER_BOUND('',#1059,.F.);
#1061=ADVANCED_FACE('',(#1060),#1051,.T.);
#1062=CARTESIAN_POINT('',(1.1E1,-2.7E1,1.E0));
#1063=DIRECTION('',(0.E0,1.E0,0.E0));
#1064=DIRECTION('',(-1.E0,0.E0,0.E0));
#1065=AXIS2_PLACEMENT_3D('',#1062,#1063,#1064);
#1066=PLANE('',#1065);
#1067=ORIENTED_EDGE('',*,*,#882,.F.);
#1069=ORIENTED_EDGE('',*,*,#1068,.T.);
#1071=ORIENTED_EDGE('',*,*,#1070,.T.);
#1072=ORIENTED_EDGE('',*,*,#1053,.F.);
#1073=EDGE_LOOP('',(#1067,#1069,#1071,#1072));
#1074=FACE_OUTER_BOUND('',#1073,.F.);
#1075=ADVANCED_FACE('',(#1074),#1066,.T.);
#1076=CARTESIAN_POINT('',(1.1E1,-3.1E1,1.E0));
#1077=DIRECTION('',(1.E0,0.E0,0.E0));
#1078=DIRECTION('',(0.E0,1.E0,0.E0));
#1079=AXIS2_PLACEMENT_3D('',#1076,#1077,#1078);
#1080=PLANE('',#1079);
#1081=ORIENTED_EDGE('',*,*,#880,.F.);
#1083=ORIENTED_EDGE('',*,*,#1082,.T.);
#1085=ORIENTED_EDGE('',*,*,#1084,.T.);
#1086=ORIENTED_EDGE('',*,*,#1068,.F.);
#1087=EDGE_LOOP('',(#1081,#1083,#1085,#1086));
#1088=FACE_OUTER_BOUND('',#1087,.F.);
#1089=ADVANCED_FACE('',(#1088),#1080,.T.);
#1090=CARTESIAN_POINT('',(-1.1E1,-3.1E1,1.E0));
#1091=DIRECTION('',(0.E0,-1.E0,0.E0));
#1092=DIRECTION('',(1.E0,0.E0,0.E0));
#1093=AXIS2_PLACEMENT_3D('',#1090,#1091,#1092);
#1094=PLANE('',#1093);
#1095=ORIENTED_EDGE('',*,*,#878,.F.);
#1096=ORIENTED_EDGE('',*,*,#1057,.T.);
#1098=ORIENTED_EDGE('',*,*,#1097,.T.);
#1099=ORIENTED_EDGE('',*,*,#1082,.F.);
#1100=EDGE_LOOP('',(#1095,#1096,#1098,#1099));
#1101=FACE_OUTER_BOUND('',#1100,.F.);
#1102=ADVANCED_FACE('',(#1101),#1094,.T.);
#1103=CARTESIAN_POINT('',(0.E0,0.E0,6.5E0));
#1104=DIRECTION('',(0.E0,0.E0,1.E0));
#1105=DIRECTION('',(0.E0,1.E0,0.E0));
#1106=AXIS2_PLACEMENT_3D('',#1103,#1104,#1105);
#1107=PLANE('',#1106);
#1108=ORIENTED_EDGE('',*,*,#1055,.F.);
#1109=ORIENTED_EDGE('',*,*,#1070,.F.);
#1110=ORIENTED_EDGE('',*,*,#1084,.F.);
#1111=ORIENTED_EDGE('',*,*,#1097,.F.);
#1112=EDGE_LOOP('',(#1108,#1109,#1110,#1111));
#1113=FACE_OUTER_BOUND('',#1112,.F.);
#1114=ADVANCED_FACE('',(#1113),#1107,.T.);
#1115=CARTESIAN_POINT('',(0.E0,0.E0,6.5E0));
#1116=DIRECTION('',(0.E0,0.E0,1.E0));
#1117=DIRECTION('',(0.E0,1.E0,0.E0));
#1118=AXIS2_PLACEMENT_3D('',#1115,#1116,#1117);
#1119=PLANE('',#1118);
#1121=ORIENTED_EDGE('',*,*,#1120,.F.);
#1123=ORIENTED_EDGE('',*,*,#1122,.F.);
#1125=ORIENTED_EDGE('',*,*,#1124,.F.);
#1127=ORIENTED_EDGE('',*,*,#1126,.F.);
#1128=EDGE_LOOP('',(#1121,#1123,#1125,#1127));
#1129=FACE_OUTER_BOUND('',#1128,.F.);
#1130=ADVANCED_FACE('',(#1129),#1119,.T.);
#1131=CARTESIAN_POINT('',(5.5E0,1.45E1,1.E0));
#1132=DIRECTION('',(-1.E0,0.E0,0.E0));
#1133=DIRECTION('',(0.E0,-1.E0,0.E0));
#1134=AXIS2_PLACEMENT_3D('',#1131,#1132,#1133);
#1135=PLANE('',#1134);
#1136=ORIENTED_EDGE('',*,*,#886,.F.);
#1138=ORIENTED_EDGE('',*,*,#1137,.T.);
#1139=ORIENTED_EDGE('',*,*,#1120,.T.);
#1141=ORIENTED_EDGE('',*,*,#1140,.F.);
#1142=EDGE_LOOP('',(#1136,#1138,#1139,#1141));
#1143=FACE_OUTER_BOUND('',#1142,.F.);
#1144=ADVANCED_FACE('',(#1143),#1135,.T.);
#1145=CARTESIAN_POINT('',(2.75E1,1.45E1,1.E0));
#1146=DIRECTION('',(0.E0,1.E0,0.E0));
#1147=DIRECTION('',(-1.E0,0.E0,0.E0));
#1148=AXIS2_PLACEMENT_3D('',#1145,#1146,#1147);
#1149=PLANE('',#1148);
#1150=ORIENTED_EDGE('',*,*,#892,.F.);
#1152=ORIENTED_EDGE('',*,*,#1151,.T.);
#1153=ORIENTED_EDGE('',*,*,#1122,.T.);
#1154=ORIENTED_EDGE('',*,*,#1137,.F.);
#1155=EDGE_LOOP('',(#1150,#1152,#1153,#1154));
#1156=FACE_OUTER_BOUND('',#1155,.F.);
#1157=ADVANCED_FACE('',(#1156),#1149,.T.);
#1158=CARTESIAN_POINT('',(2.75E1,1.05E1,1.E0));
#1159=DIRECTION('',(1.E0,0.E0,0.E0));
#1160=DIRECTION('',(0.E0,1.E0,0.E0));
#1161=AXIS2_PLACEMENT_3D('',#1158,#1159,#1160);
#1162=PLANE('',#1161);
#1163=ORIENTED_EDGE('',*,*,#890,.F.);
#1165=ORIENTED_EDGE('',*,*,#1164,.T.);
#1166=ORIENTED_EDGE('',*,*,#1124,.T.);
#1167=ORIENTED_EDGE('',*,*,#1151,.F.);
#1168=EDGE_LOOP('',(#1163,#1165,#1166,#1167));
#1169=FACE_OUTER_BOUND('',#1168,.F.);
#1170=ADVANCED_FACE('',(#1169),#1162,.T.);
#1171=CARTESIAN_POINT('',(5.5E0,1.05E1,1.E0));
#1172=DIRECTION('',(0.E0,-1.E0,0.E0));
#1173=DIRECTION('',(1.E0,0.E0,0.E0));
#1174=AXIS2_PLACEMENT_3D('',#1171,#1172,#1173);
#1175=PLANE('',#1174);
#1176=ORIENTED_EDGE('',*,*,#888,.F.);
#1177=ORIENTED_EDGE('',*,*,#1140,.T.);
#1178=ORIENTED_EDGE('',*,*,#1126,.T.);
#1179=ORIENTED_EDGE('',*,*,#1164,.F.);
#1180=EDGE_LOOP('',(#1176,#1177,#1178,#1179));
#1181=FACE_OUTER_BOUND('',#1180,.F.);
#1182=ADVANCED_FACE('',(#1181),#1175,.T.);
#1183=CARTESIAN_POINT('',(3.25E1,2.4E1,1.E0));
#1184=DIRECTION('',(0.E0,1.E0,0.E0));
#1185=DIRECTION('',(-1.E0,0.E0,0.E0));
#1186=AXIS2_PLACEMENT_3D('',#1183,#1184,#1185);
#1187=PLANE('',#1186);
#1188=ORIENTED_EDGE('',*,*,#806,.F.);
#1190=ORIENTED_EDGE('',*,*,#1189,.F.);
#1192=ORIENTED_EDGE('',*,*,#1191,.T.);
#1194=ORIENTED_EDGE('',*,*,#1193,.T.);
#1196=ORIENTED_EDGE('',*,*,#1195,.F.);
#1197=EDGE_LOOP('',(#1188,#1190,#1192,#1194,#1196));
#1198=FACE_OUTER_BOUND('',#1197,.F.);
#1199=ADVANCED_FACE('',(#1198),#1187,.T.);
#1200=CARTESIAN_POINT('',(0.E0,0.E0,1.E0));
#1201=DIRECTION('',(0.E0,0.E0,1.E0));
#1202=DIRECTION('',(0.E0,1.E0,0.E0));
#1203=AXIS2_PLACEMENT_3D('',#1200,#1201,#1202);
#1204=PLANE('',#1203);
#1206=ORIENTED_EDGE('',*,*,#1205,.F.);
#1208=ORIENTED_EDGE('',*,*,#1207,.T.);
#1210=ORIENTED_EDGE('',*,*,#1209,.T.);
#1211=ORIENTED_EDGE('',*,*,#1189,.T.);
#1212=EDGE_LOOP('',(#1206,#1208,#1210,#1211));
#1213=FACE_OUTER_BOUND('',#1212,.F.);
#1214=ADVANCED_FACE('',(#1213),#1204,.F.);
#1215=CARTESIAN_POINT('',(2.8E1,-2.95E1,0.E0));
#1216=DIRECTION('',(1.E0,0.E0,0.E0));
#1217=DIRECTION('',(0.E0,1.E0,0.E0));
#1218=AXIS2_PLACEMENT_3D('',#1215,#1216,#1217);
#1219=PLANE('',#1218);
#1220=ORIENTED_EDGE('',*,*,#1205,.T.);
#1221=ORIENTED_EDGE('',*,*,#844,.T.);
#1223=ORIENTED_EDGE('',*,*,#1222,.F.);
#1224=ORIENTED_EDGE('',*,*,#738,.F.);
#1226=ORIENTED_EDGE('',*,*,#1225,.T.);
#1227=ORIENTED_EDGE('',*,*,#820,.T.);
#1229=ORIENTED_EDGE('',*,*,#1228,.T.);
#1230=ORIENTED_EDGE('',*,*,#812,.T.);
#1231=EDGE_LOOP('',(#1220,#1221,#1223,#1224,#1226,#1227,#1229,#1230));
#1232=FACE_OUTER_BOUND('',#1231,.F.);
#1233=ADVANCED_FACE('',(#1232),#1219,.T.);
#1234=CARTESIAN_POINT('',(2.5E1,2.95E1,0.E0));
#1235=DIRECTION('',(0.E0,0.E0,1.E0));
#1236=DIRECTION('',(0.E0,1.E0,0.E0));
#1237=AXIS2_PLACEMENT_3D('',#1234,#1235,#1236);
#1238=CYLINDRICAL_SURFACE('',#1237,3.E0);
#1239=ORIENTED_EDGE('',*,*,#740,.F.);
#1240=ORIENTED_EDGE('',*,*,#1222,.T.);
#1241=ORIENTED_EDGE('',*,*,#842,.T.);
#1243=ORIENTED_EDGE('',*,*,#1242,.F.);
#1244=EDGE_LOOP('',(#1239,#1240,#1241,#1243));
#1245=FACE_OUTER_BOUND('',#1244,.F.);
#1246=ADVANCED_FACE('',(#1245),#1238,.T.);
#1247=CARTESIAN_POINT('',(2.5E1,3.25E1,0.E0));
#1248=DIRECTION('',(0.E0,1.E0,0.E0));
#1249=DIRECTION('',(-1.E0,0.E0,0.E0));
#1250=AXIS2_PLACEMENT_3D('',#1247,#1248,#1249);
#1251=PLANE('',#1250);
#1253=ORIENTED_EDGE('',*,*,#1252,.T.);
#1254=ORIENTED_EDGE('',*,*,#832,.T.);
#1256=ORIENTED_EDGE('',*,*,#1255,.F.);
#1257=ORIENTED_EDGE('',*,*,#742,.F.);
#1258=ORIENTED_EDGE('',*,*,#1242,.T.);
#1259=ORIENTED_EDGE('',*,*,#840,.T.);
#1260=EDGE_LOOP('',(#1253,#1254,#1256,#1257,#1258,#1259));
#1261=FACE_OUTER_BOUND('',#1260,.F.);
#1262=ADVANCED_FACE('',(#1261),#1251,.T.);
#1263=CARTESIAN_POINT('',(0.E0,0.E0,1.E0));
#1264=DIRECTION('',(0.E0,0.E0,1.E0));
#1265=DIRECTION('',(0.E0,1.E0,0.E0));
#1266=AXIS2_PLACEMENT_3D('',#1263,#1264,#1265);
#1267=PLANE('',#1266);
#1268=ORIENTED_EDGE('',*,*,#1252,.F.);
#1270=ORIENTED_EDGE('',*,*,#1269,.T.);
#1272=ORIENTED_EDGE('',*,*,#1271,.T.);
#1274=ORIENTED_EDGE('',*,*,#1273,.T.);
#1275=EDGE_LOOP('',(#1268,#1270,#1272,#1274));
#1276=FACE_OUTER_BOUND('',#1275,.F.);
#1277=ADVANCED_FACE('',(#1276),#1267,.F.);
#1278=CARTESIAN_POINT('',(1.55E0,2.2E1,1.E0));
#1279=DIRECTION('',(1.E0,0.E0,0.E0));
#1280=DIRECTION('',(0.E0,1.E0,0.E0));
#1281=AXIS2_PLACEMENT_3D('',#1278,#1279,#1280);
#1282=PLANE('',#1281);
#1283=ORIENTED_EDGE('',*,*,#838,.T.);
#1285=ORIENTED_EDGE('',*,*,#1284,.T.);
#1287=ORIENTED_EDGE('',*,*,#1286,.T.);
#1289=ORIENTED_EDGE('',*,*,#1288,.F.);
#1290=ORIENTED_EDGE('',*,*,#1269,.F.);
#1291=EDGE_LOOP('',(#1283,#1285,#1287,#1289,#1290));
#1292=FACE_OUTER_BOUND('',#1291,.F.);
#1293=ADVANCED_FACE('',(#1292),#1282,.T.);
#1294=CARTESIAN_POINT('',(-8.45E0,2.2E1,1.E0));
#1295=DIRECTION('',(0.E0,-1.E0,0.E0));
#1296=DIRECTION('',(1.E0,0.E0,0.E0));
#1297=AXIS2_PLACEMENT_3D('',#1294,#1295,#1296);
#1298=PLANE('',#1297);
#1299=ORIENTED_EDGE('',*,*,#836,.F.);
#1301=ORIENTED_EDGE('',*,*,#1300,.T.);
#1303=ORIENTED_EDGE('',*,*,#1302,.T.);
#1304=ORIENTED_EDGE('',*,*,#1284,.F.);
#1305=EDGE_LOOP('',(#1299,#1301,#1303,#1304));
#1306=FACE_OUTER_BOUND('',#1305,.F.);
#1307=ADVANCED_FACE('',(#1306),#1298,.T.);
#1308=CARTESIAN_POINT('',(-8.45E0,3.4E1,1.E0));
#1309=DIRECTION('',(-1.E0,0.E0,0.E0));
#1310=DIRECTION('',(0.E0,-1.E0,0.E0));
#1311=AXIS2_PLACEMENT_3D('',#1308,#1309,#1310);
#1312=PLANE('',#1311);
#1313=ORIENTED_EDGE('',*,*,#834,.F.);
#1314=ORIENTED_EDGE('',*,*,#1273,.F.);
#1316=ORIENTED_EDGE('',*,*,#1315,.T.);
#1318=ORIENTED_EDGE('',*,*,#1317,.T.);
#1319=ORIENTED_EDGE('',*,*,#1300,.F.);
#1320=EDGE_LOOP('',(#1313,#1314,#1316,#1318,#1319));
#1321=FACE_OUTER_BOUND('',#1320,.F.);
#1322=ADVANCED_FACE('',(#1321),#1312,.T.);
#1323=CARTESIAN_POINT('',(1.55E0,3.4E1,1.E0));
#1324=DIRECTION('',(0.E0,1.E0,0.E0));
#1325=DIRECTION('',(-1.E0,0.E0,0.E0));
#1326=AXIS2_PLACEMENT_3D('',#1323,#1324,#1325);
#1327=PLANE('',#1326);
#1328=ORIENTED_EDGE('',*,*,#1271,.F.);
#1329=ORIENTED_EDGE('',*,*,#1288,.T.);
#1331=ORIENTED_EDGE('',*,*,#1330,.T.);
#1332=ORIENTED_EDGE('',*,*,#1315,.F.);
#1333=EDGE_LOOP('',(#1328,#1329,#1331,#1332));
#1334=FACE_OUTER_BOUND('',#1333,.F.);
#1335=ADVANCED_FACE('',(#1334),#1327,.T.);
#1336=CARTESIAN_POINT('',(0.E0,0.E0,8.1E0));
#1337=DIRECTION('',(0.E0,0.E0,1.E0));
#1338=DIRECTION('',(0.E0,1.E0,0.E0));
#1339=AXIS2_PLACEMENT_3D('',#1336,#1337,#1338);
#1340=PLANE('',#1339);
#1341=ORIENTED_EDGE('',*,*,#1330,.F.);
#1342=ORIENTED_EDGE('',*,*,#1286,.F.);
#1343=ORIENTED_EDGE('',*,*,#1302,.F.);
#1344=ORIENTED_EDGE('',*,*,#1317,.F.);
#1345=EDGE_LOOP('',(#1341,#1342,#1343,#1344));
#1346=FACE_OUTER_BOUND('',#1345,.F.);
#1347=ADVANCED_FACE('',(#1346),#1340,.T.);
#1348=CARTESIAN_POINT('',(-2.5E1,2.95E1,0.E0));
#1349=DIRECTION('',(0.E0,0.E0,1.E0));
#1350=DIRECTION('',(0.E0,1.E0,0.E0));
#1351=AXIS2_PLACEMENT_3D('',#1348,#1349,#1350);
#1352=CYLINDRICAL_SURFACE('',#1351,3.E0);
#1353=ORIENTED_EDGE('',*,*,#744,.F.);
#1354=ORIENTED_EDGE('',*,*,#1255,.T.);
#1355=ORIENTED_EDGE('',*,*,#830,.T.);
#1357=ORIENTED_EDGE('',*,*,#1356,.F.);
#1358=EDGE_LOOP('',(#1353,#1354,#1355,#1357));
#1359=FACE_OUTER_BOUND('',#1358,.F.);
#1360=ADVANCED_FACE('',(#1359),#1352,.T.);
#1361=CARTESIAN_POINT('',(-2.8E1,2.95E1,0.E0));
#1362=DIRECTION('',(-1.E0,0.E0,0.E0));
#1363=DIRECTION('',(0.E0,-1.E0,0.E0));
#1364=AXIS2_PLACEMENT_3D('',#1361,#1362,#1363);
#1365=PLANE('',#1364);
#1366=ORIENTED_EDGE('',*,*,#730,.F.);
#1367=ORIENTED_EDGE('',*,*,#1356,.T.);
#1368=ORIENTED_EDGE('',*,*,#828,.T.);
#1370=ORIENTED_EDGE('',*,*,#1369,.F.);
#1371=EDGE_LOOP('',(#1366,#1367,#1368,#1370));
#1372=FACE_OUTER_BOUND('',#1371,.F.);
#1373=ADVANCED_FACE('',(#1372),#1365,.T.);
#1374=CARTESIAN_POINT('',(-2.5E1,-2.95E1,0.E0));
#1375=DIRECTION('',(0.E0,0.E0,1.E0));
#1376=DIRECTION('',(0.E0,1.E0,0.E0));
#1377=AXIS2_PLACEMENT_3D('',#1374,#1375,#1376);
#1378=CYLINDRICAL_SURFACE('',#1377,3.E0);
#1379=ORIENTED_EDGE('',*,*,#732,.F.);
#1380=ORIENTED_EDGE('',*,*,#1369,.T.);
#1381=ORIENTED_EDGE('',*,*,#826,.T.);
#1383=ORIENTED_EDGE('',*,*,#1382,.F.);
#1384=EDGE_LOOP('',(#1379,#1380,#1381,#1383));
#1385=FACE_OUTER_BOUND('',#1384,.F.);
#1386=ADVANCED_FACE('',(#1385),#1378,.T.);
#1387=CARTESIAN_POINT('',(-2.5E1,-3.25E1,0.E0));
#1388=DIRECTION('',(0.E0,-1.E0,0.E0));
#1389=DIRECTION('',(1.E0,0.E0,0.E0));
#1390=AXIS2_PLACEMENT_3D('',#1387,#1388,#1389);
#1391=PLANE('',#1390);
#1392=ORIENTED_EDGE('',*,*,#734,.F.);
#1393=ORIENTED_EDGE('',*,*,#1382,.T.);
#1394=ORIENTED_EDGE('',*,*,#824,.T.);
#1396=ORIENTED_EDGE('',*,*,#1395,.F.);
#1397=EDGE_LOOP('',(#1392,#1393,#1394,#1396));
#1398=FACE_OUTER_BOUND('',#1397,.F.);
#1399=ADVANCED_FACE('',(#1398),#1391,.T.);
#1400=CARTESIAN_POINT('',(2.5E1,-2.95E1,0.E0));
#1401=DIRECTION('',(0.E0,0.E0,1.E0));
#1402=DIRECTION('',(0.E0,1.E0,0.E0));
#1403=AXIS2_PLACEMENT_3D('',#1400,#1401,#1402);
#1404=CYLINDRICAL_SURFACE('',#1403,3.E0);
#1405=ORIENTED_EDGE('',*,*,#736,.F.);
#1406=ORIENTED_EDGE('',*,*,#1395,.T.);
#1407=ORIENTED_EDGE('',*,*,#822,.T.);
#1408=ORIENTED_EDGE('',*,*,#1225,.F.);
#1409=EDGE_LOOP('',(#1405,#1406,#1407,#1408));
#1410=FACE_OUTER_BOUND('',#1409,.F.);
#1411=ADVANCED_FACE('',(#1410),#1404,.T.);
#1412=CARTESIAN_POINT('',(0.E0,0.E0,1.E0));
#1413=DIRECTION('',(0.E0,0.E0,1.E0));
#1414=DIRECTION('',(0.E0,1.E0,0.E0));
#1415=AXIS2_PLACEMENT_3D('',#1412,#1413,#1414);
#1416=PLANE('',#1415);
#1417=ORIENTED_EDGE('',*,*,#1228,.F.);
#1419=ORIENTED_EDGE('',*,*,#1418,.T.);
#1421=ORIENTED_EDGE('',*,*,#1420,.T.);
#1423=ORIENTED_EDGE('',*,*,#1422,.T.);
#1424=EDGE_LOOP('',(#1417,#1419,#1421,#1423));
#1425=FACE_OUTER_BOUND('',#1424,.F.);
#1426=ADVANCED_FACE('',(#1425),#1416,.F.);
#1427=CARTESIAN_POINT('',(1.7E1,-8.E0,1.E0));
#1428=DIRECTION('',(0.E0,-1.E0,0.E0));
#1429=DIRECTION('',(1.E0,0.E0,0.E0));
#1430=AXIS2_PLACEMENT_3D('',#1427,#1428,#1429);
#1431=PLANE('',#1430);
#1432=ORIENTED_EDGE('',*,*,#818,.T.);
#1434=ORIENTED_EDGE('',*,*,#1433,.T.);
#1436=ORIENTED_EDGE('',*,*,#1435,.T.);
#1438=ORIENTED_EDGE('',*,*,#1437,.F.);
#1439=ORIENTED_EDGE('',*,*,#1418,.F.);
#1440=EDGE_LOOP('',(#1432,#1434,#1436,#1438,#1439));
#1441=FACE_OUTER_BOUND('',#1440,.F.);
#1442=ADVANCED_FACE('',(#1441),#1431,.T.);
#1443=CARTESIAN_POINT('',(1.7E1,7.E0,1.E0));
#1444=DIRECTION('',(-1.E0,0.E0,0.E0));
#1445=DIRECTION('',(0.E0,-1.E0,0.E0));
#1446=AXIS2_PLACEMENT_3D('',#1443,#1444,#1445);
#1447=PLANE('',#1446);
#1448=ORIENTED_EDGE('',*,*,#816,.F.);
#1450=ORIENTED_EDGE('',*,*,#1449,.T.);
#1452=ORIENTED_EDGE('',*,*,#1451,.T.);
#1453=ORIENTED_EDGE('',*,*,#1433,.F.);
#1454=EDGE_LOOP('',(#1448,#1450,#1452,#1453));
#1455=FACE_OUTER_BOUND('',#1454,.F.);
#1456=ADVANCED_FACE('',(#1455),#1447,.T.);
#1457=CARTESIAN_POINT('',(2.9E1,7.E0,1.E0));
#1458=DIRECTION('',(0.E0,1.E0,0.E0));
#1459=DIRECTION('',(-1.E0,0.E0,0.E0));
#1460=AXIS2_PLACEMENT_3D('',#1457,#1458,#1459);
#1461=PLANE('',#1460);
#1462=ORIENTED_EDGE('',*,*,#814,.F.);
#1463=ORIENTED_EDGE('',*,*,#1422,.F.);
#1465=ORIENTED_EDGE('',*,*,#1464,.T.);
#1467=ORIENTED_EDGE('',*,*,#1466,.T.);
#1468=ORIENTED_EDGE('',*,*,#1449,.F.);
#1469=EDGE_LOOP('',(#1462,#1463,#1465,#1467,#1468));
#1470=FACE_OUTER_BOUND('',#1469,.F.);
#1471=ADVANCED_FACE('',(#1470),#1461,.T.);
#1472=CARTESIAN_POINT('',(2.9E1,-8.E0,1.E0));
#1473=DIRECTION('',(1.E0,0.E0,0.E0));
#1474=DIRECTION('',(0.E0,1.E0,0.E0));
#1475=AXIS2_PLACEMENT_3D('',#1472,#1473,#1474);
#1476=PLANE('',#1475);
#1477=ORIENTED_EDGE('',*,*,#1420,.F.);
#1478=ORIENTED_EDGE('',*,*,#1437,.T.);
#1480=ORIENTED_EDGE('',*,*,#1479,.T.);
#1481=ORIENTED_EDGE('',*,*,#1464,.F.);
#1482=EDGE_LOOP('',(#1477,#1478,#1480,#1481));
#1483=FACE_OUTER_BOUND('',#1482,.F.);
#1484=ADVANCED_FACE('',(#1483),#1476,.T.);
#1485=CARTESIAN_POINT('',(0.E0,0.E0,7.5E0));
#1486=DIRECTION('',(0.E0,0.E0,1.E0));
#1487=DIRECTION('',(0.E0,1.E0,0.E0));
#1488=AXIS2_PLACEMENT_3D('',#1485,#1486,#1487);
#1489=PLANE('',#1488);
#1490=ORIENTED_EDGE('',*,*,#1466,.F.);
#1491=ORIENTED_EDGE('',*,*,#1479,.F.);
#1492=ORIENTED_EDGE('',*,*,#1435,.F.);
#1493=ORIENTED_EDGE('',*,*,#1451,.F.);
#1494=EDGE_LOOP('',(#1490,#1491,#1492,#1493));
#1495=FACE_OUTER_BOUND('',#1494,.F.);
#1496=ADVANCED_FACE('',(#1495),#1489,.T.);
#1497=CARTESIAN_POINT('',(1.55E1,1.8E1,1.E0));
#1498=DIRECTION('',(0.E0,-1.E0,0.E0));
#1499=DIRECTION('',(1.E0,0.E0,0.E0));
#1500=AXIS2_PLACEMENT_3D('',#1497,#1498,#1499);
#1501=PLANE('',#1500);
#1502=ORIENTED_EDGE('',*,*,#810,.T.);
#1504=ORIENTED_EDGE('',*,*,#1503,.T.);
#1506=ORIENTED_EDGE('',*,*,#1505,.T.);
#1508=ORIENTED_EDGE('',*,*,#1507,.F.);
#1509=ORIENTED_EDGE('',*,*,#1207,.F.);
#1510=EDGE_LOOP('',(#1502,#1504,#1506,#1508,#1509));
#1511=FACE_OUTER_BOUND('',#1510,.F.);
#1512=ADVANCED_FACE('',(#1511),#1501,.T.);
#1513=CARTESIAN_POINT('',(1.55E1,2.4E1,1.E0));
#1514=DIRECTION('',(-1.E0,0.E0,0.E0));
#1515=DIRECTION('',(0.E0,-1.E0,0.E0));
#1516=AXIS2_PLACEMENT_3D('',#1513,#1514,#1515);
#1517=PLANE('',#1516);
#1518=ORIENTED_EDGE('',*,*,#808,.F.);
#1519=ORIENTED_EDGE('',*,*,#1195,.T.);
#1521=ORIENTED_EDGE('',*,*,#1520,.T.);
#1522=ORIENTED_EDGE('',*,*,#1503,.F.);
#1523=EDGE_LOOP('',(#1518,#1519,#1521,#1522));
#1524=FACE_OUTER_BOUND('',#1523,.F.);
#1525=ADVANCED_FACE('',(#1524),#1517,.T.);
#1526=CARTESIAN_POINT('',(0.E0,0.E0,7.E0));
#1527=DIRECTION('',(0.E0,0.E0,1.E0));
#1528=DIRECTION('',(0.E0,1.E0,0.E0));
#1529=AXIS2_PLACEMENT_3D('',#1526,#1527,#1528);
#1530=PLANE('',#1529);
#1532=ORIENTED_EDGE('',*,*,#1531,.F.);
#1533=ORIENTED_EDGE('',*,*,#1505,.F.);
#1534=ORIENTED_EDGE('',*,*,#1520,.F.);
#1535=ORIENTED_EDGE('',*,*,#1193,.F.);
#1536=EDGE_LOOP('',(#1532,#1533,#1534,#1535));
#1537=FACE_OUTER_BOUND('',#1536,.F.);
#1538=ADVANCED_FACE('',(#1537),#1530,.T.);
#1539=CARTESIAN_POINT('',(3.25E1,1.8E1,1.E0));
#1540=DIRECTION('',(1.E0,0.E0,0.E0));
#1541=DIRECTION('',(0.E0,1.E0,0.E0));
#1542=AXIS2_PLACEMENT_3D('',#1539,#1540,#1541);
#1543=PLANE('',#1542);
#1544=ORIENTED_EDGE('',*,*,#1209,.F.);
#1545=ORIENTED_EDGE('',*,*,#1507,.T.);
#1546=ORIENTED_EDGE('',*,*,#1531,.T.);
#1547=ORIENTED_EDGE('',*,*,#1191,.F.);
#1548=EDGE_LOOP('',(#1544,#1545,#1546,#1547));
#1549=FACE_OUTER_BOUND('',#1548,.F.);
#1550=ADVANCED_FACE('',(#1549),#1543,.T.);
#1554=DIMENSIONAL_EXPONENTS(0.E0,0.E0,0.E0,0.E0,0.E0,0.E0,0.E0);
#1556=PLANE_ANGLE_MEASURE_WITH_UNIT(PLANE_ANGLE_MEASURE(1.745329251994E-2),
#1555);
#1557=(CONVERSION_BASED_UNIT('DEGREE',#1556)NAMED_UNIT(*)PLANE_ANGLE_UNIT());
#1559=UNCERTAINTY_MEASURE_WITH_UNIT(LENGTH_MEASURE(9.906E-3),#1553,'closure',
'Maximum model space distance between geometric entities at asserted connectivities');
#1560=(GEOMETRIC_REPRESENTATION_CONTEXT(3)GLOBAL_UNCERTAINTY_ASSIGNED_CONTEXT((
#1559))GLOBAL_UNIT_ASSIGNED_CONTEXT((#1553,#1557,#1558))REPRESENTATION_CONTEXT(
'ID1','3'));
#1562=APPLICATION_CONTEXT(
'CONFIGURATION CONTROLLED 3D DESIGNS OF MECHANICAL PARTS AND ASSEMBLIES');
#1563=APPLICATION_PROTOCOL_DEFINITION('international standard',
'config_control_design',1994,#1562);
#1564=DESIGN_CONTEXT('',#1562,'design');
#1565=MECHANICAL_CONTEXT('',#1562,'mechanical');
#1566=PRODUCT('RASBERRYPI3','RASBERRYPI3','NOT SPECIFIED',(#1565));
#1567=PRODUCT_DEFINITION_FORMATION_WITH_SPECIFIED_SOURCE('1','LAST_VERSION',
#1566,.MADE.);
#1571=PRODUCT_CATEGORY('part','');
#1572=PRODUCT_RELATED_PRODUCT_CATEGORY('detail','',(#1566));
#1573=PRODUCT_CATEGORY_RELATIONSHIP('','',#1571,#1572);
#1574=SECURITY_CLASSIFICATION_LEVEL('unclassified');
#1575=SECURITY_CLASSIFICATION('','',#1574);
#1576=CC_DESIGN_SECURITY_CLASSIFICATION(#1575,(#1567));
#1577=APPROVAL_STATUS('approved');
#1578=APPROVAL(#1577,'');
#1579=CC_DESIGN_APPROVAL(#1578,(#1575,#1567,#1568));
#1580=CALENDAR_DATE(126,15,2);
#1581=COORDINATED_UNIVERSAL_TIME_OFFSET(1,0,.AHEAD.);
#1582=LOCAL_TIME(15,52,3.6E1,#1581);
#1583=DATE_AND_TIME(#1580,#1582);
#1584=APPROVAL_DATE_TIME(#1583,#1578);
#1585=DATE_TIME_ROLE('creation_date');
#1586=CC_DESIGN_DATE_AND_TIME_ASSIGNMENT(#1583,#1585,(#1568));
#1587=DATE_TIME_ROLE('classification_date');
#1588=CC_DESIGN_DATE_AND_TIME_ASSIGNMENT(#1583,#1587,(#1575));
#1589=PERSON('UNSPECIFIED','UNSPECIFIED',$,$,$,$);
#1590=ORGANIZATION('UNSPECIFIED','UNSPECIFIED','UNSPECIFIED');
#1591=PERSON_AND_ORGANIZATION(#1589,#1590);
#1592=APPROVAL_ROLE('approver');
#1593=APPROVAL_PERSON_ORGANIZATION(#1591,#1578,#1592);
#1594=PERSON_AND_ORGANIZATION_ROLE('creator');
#1595=CC_DESIGN_PERSON_AND_ORGANIZATION_ASSIGNMENT(#1591,#1594,(#1567,#1568));
#1596=PERSON_AND_ORGANIZATION_ROLE('design_supplier');
#1597=CC_DESIGN_PERSON_AND_ORGANIZATION_ASSIGNMENT(#1591,#1596,(#1567));
#1598=PERSON_AND_ORGANIZATION_ROLE('classification_officer');
#1599=CC_DESIGN_PERSON_AND_ORGANIZATION_ASSIGNMENT(#1591,#1598,(#1575));
#1600=PERSON_AND_ORGANIZATION_ROLE('design_owner');
#1601=CC_DESIGN_PERSON_AND_ORGANIZATION_ASSIGNMENT(#1591,#1600,(#1566));
#5=CIRCLE('',#4,1.5E0);
#10=CIRCLE('',#9,1.5E0);
#15=CIRCLE('',#14,1.5E0);
#20=CIRCLE('',#19,1.5E0);
#25=CIRCLE('',#24,1.5E0);
#30=CIRCLE('',#29,1.5E0);
#35=CIRCLE('',#34,1.5E0);
#40=CIRCLE('',#39,1.5E0);
#49=CIRCLE('',#48,3.E0);
#58=CIRCLE('',#57,3.E0);
#67=CIRCLE('',#66,3.E0);
#76=CIRCLE('',#75,3.E0);
#89=CIRCLE('',#88,1.5E0);
#94=CIRCLE('',#93,1.5E0);
#99=CIRCLE('',#98,1.5E0);
#104=CIRCLE('',#103,1.5E0);
#109=CIRCLE('',#108,1.5E0);
#114=CIRCLE('',#113,1.5E0);
#119=CIRCLE('',#118,1.5E0);
#124=CIRCLE('',#123,1.5E0);
#209=CIRCLE('',#208,3.E0);
#218=CIRCLE('',#217,3.E0);
#227=CIRCLE('',#226,3.E0);
#252=CIRCLE('',#251,3.E0);
#730=EDGE_CURVE('',#571,#572,#44,.T.);
#732=EDGE_CURVE('',#572,#574,#49,.T.);
#734=EDGE_CURVE('',#574,#576,#53,.T.);
#736=EDGE_CURVE('',#576,#578,#58,.T.);
#738=EDGE_CURVE('',#578,#580,#62,.T.);
#740=EDGE_CURVE('',#580,#582,#67,.T.);
#742=EDGE_CURVE('',#582,#584,#71,.T.);
#744=EDGE_CURVE('',#584,#571,#76,.T.);
#748=EDGE_CURVE('',#559,#560,#15,.T.);
#750=EDGE_CURVE('',#560,#559,#20,.T.);
#754=EDGE_CURVE('',#563,#564,#25,.T.);
#756=EDGE_CURVE('',#564,#563,#30,.T.);
#760=EDGE_CURVE('',#567,#568,#35,.T.);
#762=EDGE_CURVE('',#568,#567,#40,.T.);
#766=EDGE_CURVE('',#555,#556,#5,.T.);
#768=EDGE_CURVE('',#556,#555,#10,.T.);
#779=EDGE_CURVE('',#555,#587,#80,.T.);
#781=EDGE_CURVE('',#587,#588,#89,.T.);
#783=EDGE_CURVE('',#556,#588,#84,.T.);
#795=EDGE_CURVE('',#588,#587,#94,.T.);
#806=EDGE_CURVE('',#719,#720,#176,.T.);
#808=EDGE_CURVE('',#720,#722,#180,.T.);
#810=EDGE_CURVE('',#724,#722,#184,.T.);
#812=EDGE_CURVE('',#699,#724,#188,.T.);
#814=EDGE_CURVE('',#699,#700,#192,.T.);
#816=EDGE_CURVE('',#700,#702,#196,.T.);
#818=EDGE_CURVE('',#704,#702,#200,.T.);
#820=EDGE_CURVE('',#610,#704,#204,.T.);
#822=EDGE_CURVE('',#608,#610,#209,.T.);
#824=EDGE_CURVE('',#606,#608,#213,.T.);
#826=EDGE_CURVE('',#604,#606,#218,.T.);
#828=EDGE_CURVE('',#603,#604,#222,.T.);
#830=EDGE_CURVE('',#616,#603,#227,.T.);
#832=EDGE_CURVE('',#679,#616,#231,.T.);
#834=EDGE_CURVE('',#679,#680,#235,.T.);
#836=EDGE_CURVE('',#680,#682,#239,.T.);
#838=EDGE_CURVE('',#684,#682,#243,.T.);
#840=EDGE_CURVE('',#614,#684,#247,.T.);
#842=EDGE_CURVE('',#613,#614,#252,.T.);
#844=EDGE_CURVE('',#719,#613,#256,.T.);
#848=EDGE_CURVE('',#591,#592,#99,.T.);
#850=EDGE_CURVE('',#592,#591,#104,.T.);
#854=EDGE_CURVE('',#595,#596,#109,.T.);
#856=EDGE_CURVE('',#596,#595,#114,.T.);
#860=EDGE_CURVE('',#599,#600,#119,.T.);
#862=EDGE_CURVE('',#600,#599,#124,.T.);
#866=EDGE_CURVE('',#627,#628,#128,.T.);
#868=EDGE_CURVE('',#628,#630,#132,.T.);
#870=EDGE_CURVE('',#630,#632,#136,.T.);
#872=EDGE_CURVE('',#632,#627,#140,.T.);
#876=EDGE_CURVE('',#651,#652,#144,.T.);
#878=EDGE_CURVE('',#652,#654,#148,.T.);
#880=EDGE_CURVE('',#654,#656,#152,.T.);
#882=EDGE_CURVE('',#656,#651,#156,.T.);
#886=EDGE_CURVE('',#659,#660,#160,.T.);
#888=EDGE_CURVE('',#660,#662,#164,.T.);
#890=EDGE_CURVE('',#662,#664,#168,.T.);
#892=EDGE_CURVE('',#664,#659,#172,.T.);
#907=EDGE_CURVE('',#559,#591,#260,.T.);
#910=EDGE_CURVE('',#560,#592,#264,.T.);
#933=EDGE_CURVE('',#563,#595,#268,.T.);
#936=EDGE_CURVE('',#564,#596,#272,.T.);
#959=EDGE_CURVE('',#567,#599,#276,.T.);
#962=EDGE_CURVE('',#568,#600,#280,.T.);
#985=EDGE_CURVE('',#627,#619,#284,.T.);
#987=EDGE_CURVE('',#619,#620,#300,.T.);
#989=EDGE_CURVE('',#628,#620,#296,.T.);
#1000=EDGE_CURVE('',#632,#624,#288,.T.);
#1002=EDGE_CURVE('',#624,#619,#304,.T.);
#1014=EDGE_CURVE('',#630,#622,#292,.T.);
#1016=EDGE_CURVE('',#622,#624,#308,.T.);
#1029=EDGE_CURVE('',#620,#622,#312,.T.);
#1053=EDGE_CURVE('',#651,#635,#316,.T.);
#1055=EDGE_CURVE('',#635,#636,#332,.T.);
#1057=EDGE_CURVE('',#652,#636,#328,.T.);
#1068=EDGE_CURVE('',#656,#640,#320,.T.);
#1070=EDGE_CURVE('',#640,#635,#336,.T.);
#1082=EDGE_CURVE('',#654,#638,#324,.T.);
#1084=EDGE_CURVE('',#638,#640,#340,.T.);
#1097=EDGE_CURVE('',#636,#638,#344,.T.);
#1120=EDGE_CURVE('',#643,#644,#348,.T.);
#1122=EDGE_CURVE('',#648,#643,#352,.T.);
#1124=EDGE_CURVE('',#646,#648,#356,.T.);
#1126=EDGE_CURVE('',#644,#646,#360,.T.);
#1137=EDGE_CURVE('',#659,#643,#364,.T.);
#1140=EDGE_CURVE('',#660,#644,#376,.T.);
#1151=EDGE_CURVE('',#664,#648,#368,.T.);
#1164=EDGE_CURVE('',#662,#646,#372,.T.);
#1189=EDGE_CURVE('',#708,#719,#392,.T.);
#1191=EDGE_CURVE('',#708,#712,#380,.T.);
#1193=EDGE_CURVE('',#712,#714,#548,.T.);
#1195=EDGE_CURVE('',#720,#714,#532,.T.);
#1205=EDGE_CURVE('',#724,#719,#396,.T.);
#1207=EDGE_CURVE('',#724,#707,#384,.T.);
#1209=EDGE_CURVE('',#707,#708,#388,.T.);
#1222=EDGE_CURVE('',#580,#613,#408,.T.);
#1225=EDGE_CURVE('',#578,#610,#400,.T.);
#1228=EDGE_CURVE('',#704,#699,#404,.T.);
#1242=EDGE_CURVE('',#582,#614,#416,.T.);
#1252=EDGE_CURVE('',#684,#679,#412,.T.);
#1255=EDGE_CURVE('',#584,#616,#464,.T.);
#1269=EDGE_CURVE('',#684,#667,#420,.T.);
#1271=EDGE_CURVE('',#667,#668,#424,.T.);
#1273=EDGE_CURVE('',#668,#679,#428,.T.);
#1284=EDGE_CURVE('',#682,#676,#432,.T.);
#1286=EDGE_CURVE('',#676,#671,#452,.T.);
#1288=EDGE_CURVE('',#667,#671,#444,.T.);
#1300=EDGE_CURVE('',#680,#674,#436,.T.);
#1302=EDGE_CURVE('',#674,#676,#456,.T.);
#1315=EDGE_CURVE('',#668,#672,#440,.T.);
#1317=EDGE_CURVE('',#672,#674,#460,.T.);
#1330=EDGE_CURVE('',#671,#672,#448,.T.);
#1356=EDGE_CURVE('',#571,#603,#468,.T.);
#1369=EDGE_CURVE('',#572,#604,#472,.T.);
#1382=EDGE_CURVE('',#574,#606,#476,.T.);
#1395=EDGE_CURVE('',#576,#608,#480,.T.);
#1418=EDGE_CURVE('',#704,#687,#484,.T.);
#1420=EDGE_CURVE('',#687,#688,#488,.T.);
#1422=EDGE_CURVE('',#688,#699,#492,.T.);
#1433=EDGE_CURVE('',#702,#694,#496,.T.);
#1435=EDGE_CURVE('',#694,#696,#520,.T.);
#1437=EDGE_CURVE('',#687,#696,#508,.T.);
#1449=EDGE_CURVE('',#700,#692,#500,.T.);
#1451=EDGE_CURVE('',#692,#694,#524,.T.);
#1464=EDGE_CURVE('',#688,#691,#504,.T.);
#1466=EDGE_CURVE('',#691,#692,#512,.T.);
#1479=EDGE_CURVE('',#696,#691,#516,.T.);
#1503=EDGE_CURVE('',#722,#716,#528,.T.);
#1505=EDGE_CURVE('',#716,#711,#540,.T.);
#1507=EDGE_CURVE('',#707,#711,#552,.T.);
#1520=EDGE_CURVE('',#714,#716,#544,.T.);
#1531=EDGE_CURVE('',#711,#712,#536,.T.);
#1551=CLOSED_SHELL('',(#772,#787,#800,#900,#914,#926,#940,#952,#966,#978,#993,
#1007,#1021,#1034,#1046,#1061,#1075,#1089,#1102,#1114,#1130,#1144,#1157,#1170,
#1182,#1199,#1214,#1233,#1246,#1262,#1277,#1293,#1307,#1322,#1335,#1347,#1360,
#1373,#1386,#1399,#1411,#1426,#1442,#1456,#1471,#1484,#1496,#1512,#1525,#1538,
#1550));
#1552=MANIFOLD_SOLID_BREP('',#1551);
#1553=(LENGTH_UNIT()NAMED_UNIT(*)SI_UNIT(.MILLI.,.METRE.));
#1555=(NAMED_UNIT(*)PLANE_ANGLE_UNIT()SI_UNIT($,.RADIAN.));
#1558=(NAMED_UNIT(*)SI_UNIT($,.STERADIAN.)SOLID_ANGLE_UNIT());
#1561=ADVANCED_BREP_SHAPE_REPRESENTATION('',(#1552),#1560);
#1568=PRODUCT_DEFINITION('design','',#1567,#1564);
#1569=PRODUCT_DEFINITION_SHAPE('','SHAPE FOR RASBERRYPI3.',#1568);
#1570=SHAPE_DEFINITION_REPRESENTATION(#1569,#1561);
ENDSEC;
END-ISO-10303-21;
