ISO-10303-21;
HEADER;
FILE_DESCRIPTION((''),'2;1');
FILE_NAME('SWITCH','2026-02-15T17:02:57',('coren'),(''),
'CREO PARAMETRIC BY PTC INC, 2022164','CREO PARAMETRIC BY PTC INC, 2022164','');
FILE_SCHEMA(('CONFIG_CONTROL_DESIGN'));
ENDSEC;
DATA;
#1=DIRECTION('',(0.E0,-1.E0,0.E0));
#2=VECTOR('',#1,9.E0);
#3=CARTESIAN_POINT('',(0.E0,9.E0,0.E0));
#4=LINE('',#3,#2);
#5=DIRECTION('',(0.E0,0.E0,-1.E0));
#6=VECTOR('',#5,3.E0);
#7=CARTESIAN_POINT('',(0.E0,0.E0,0.E0));
#8=LINE('',#7,#6);
#9=DIRECTION('',(0.E0,1.E0,0.E0));
#10=VECTOR('',#9,5.E0);
#11=CARTESIAN_POINT('',(0.E0,0.E0,-3.E0));
#12=LINE('',#11,#10);
#13=DIRECTION('',(0.E0,0.E0,1.E0));
#14=VECTOR('',#13,2.E0);
#15=CARTESIAN_POINT('',(0.E0,5.E0,-3.E0));
#16=LINE('',#15,#14);
#17=DIRECTION('',(0.E0,1.E0,0.E0));
#18=VECTOR('',#17,4.E0);
#19=CARTESIAN_POINT('',(0.E0,5.E0,-1.E0));
#20=LINE('',#19,#18);
#21=DIRECTION('',(0.E0,0.E0,1.E0));
#22=VECTOR('',#21,1.E0);
#23=CARTESIAN_POINT('',(0.E0,9.E0,-1.E0));
#24=LINE('',#23,#22);
#25=DIRECTION('',(1.E0,0.E0,0.E0));
#26=VECTOR('',#25,2.4E1);
#27=CARTESIAN_POINT('',(0.E0,9.E0,0.E0));
#28=LINE('',#27,#26);
#29=CARTESIAN_POINT('',(4.5E0,7.E0,0.E0));
#30=DIRECTION('',(0.E0,0.E0,-1.E0));
#31=DIRECTION('',(0.E0,-1.E0,0.E0));
#32=AXIS2_PLACEMENT_3D('',#29,#30,#31);
#34=DIRECTION('',(-1.E0,0.E0,0.E0));
#35=VECTOR('',#34,1.E0);
#36=CARTESIAN_POINT('',(5.5E0,5.5E0,0.E0));
#37=LINE('',#36,#35);
#38=CARTESIAN_POINT('',(5.5E0,7.E0,0.E0));
#39=DIRECTION('',(0.E0,0.E0,-1.E0));
#40=DIRECTION('',(0.E0,1.E0,0.E0));
#41=AXIS2_PLACEMENT_3D('',#38,#39,#40);
#43=DIRECTION('',(1.E0,0.E0,0.E0));
#44=VECTOR('',#43,1.E0);
#45=CARTESIAN_POINT('',(4.5E0,8.5E0,0.E0));
#46=LINE('',#45,#44);
#47=CARTESIAN_POINT('',(1.85E1,7.E0,0.E0));
#48=DIRECTION('',(0.E0,0.E0,-1.E0));
#49=DIRECTION('',(0.E0,-1.E0,0.E0));
#50=AXIS2_PLACEMENT_3D('',#47,#48,#49);
#52=DIRECTION('',(-1.E0,0.E0,0.E0));
#53=VECTOR('',#52,1.E0);
#54=CARTESIAN_POINT('',(1.95E1,5.5E0,0.E0));
#55=LINE('',#54,#53);
#56=CARTESIAN_POINT('',(1.95E1,7.E0,0.E0));
#57=DIRECTION('',(0.E0,0.E0,-1.E0));
#58=DIRECTION('',(0.E0,1.E0,0.E0));
#59=AXIS2_PLACEMENT_3D('',#56,#57,#58);
#61=DIRECTION('',(1.E0,0.E0,0.E0));
#62=VECTOR('',#61,1.E0);
#63=CARTESIAN_POINT('',(1.85E1,8.5E0,0.E0));
#64=LINE('',#63,#62);
#65=DIRECTION('',(1.E0,0.E0,0.E0));
#66=VECTOR('',#65,2.4E1);
#67=CARTESIAN_POINT('',(0.E0,9.E0,-1.E0));
#68=LINE('',#67,#66);
#69=DIRECTION('',(1.E0,0.E0,0.E0));
#70=VECTOR('',#69,2.4E1);
#71=CARTESIAN_POINT('',(0.E0,5.E0,-1.E0));
#72=LINE('',#71,#70);
#73=CARTESIAN_POINT('',(4.5E0,7.E0,-1.E0));
#74=DIRECTION('',(0.E0,0.E0,-1.E0));
#75=DIRECTION('',(0.E0,-1.E0,0.E0));
#76=AXIS2_PLACEMENT_3D('',#73,#74,#75);
#78=DIRECTION('',(1.E0,0.E0,0.E0));
#79=VECTOR('',#78,1.E0);
#80=CARTESIAN_POINT('',(4.5E0,8.5E0,-1.E0));
#81=LINE('',#80,#79);
#82=CARTESIAN_POINT('',(5.5E0,7.E0,-1.E0));
#83=DIRECTION('',(0.E0,0.E0,-1.E0));
#84=DIRECTION('',(0.E0,1.E0,0.E0));
#85=AXIS2_PLACEMENT_3D('',#82,#83,#84);
#87=DIRECTION('',(-1.E0,0.E0,0.E0));
#88=VECTOR('',#87,1.E0);
#89=CARTESIAN_POINT('',(5.5E0,5.5E0,-1.E0));
#90=LINE('',#89,#88);
#91=CARTESIAN_POINT('',(1.85E1,7.E0,-1.E0));
#92=DIRECTION('',(0.E0,0.E0,-1.E0));
#93=DIRECTION('',(0.E0,-1.E0,0.E0));
#94=AXIS2_PLACEMENT_3D('',#91,#92,#93);
#96=DIRECTION('',(1.E0,0.E0,0.E0));
#97=VECTOR('',#96,1.E0);
#98=CARTESIAN_POINT('',(1.85E1,8.5E0,-1.E0));
#99=LINE('',#98,#97);
#100=CARTESIAN_POINT('',(1.95E1,7.E0,-1.E0));
#101=DIRECTION('',(0.E0,0.E0,-1.E0));
#102=DIRECTION('',(0.E0,1.E0,0.E0));
#103=AXIS2_PLACEMENT_3D('',#100,#101,#102);
#105=DIRECTION('',(-1.E0,0.E0,0.E0));
#106=VECTOR('',#105,1.E0);
#107=CARTESIAN_POINT('',(1.95E1,5.5E0,-1.E0));
#108=LINE('',#107,#106);
#109=DIRECTION('',(1.E0,0.E0,0.E0));
#110=VECTOR('',#109,2.4E1);
#111=CARTESIAN_POINT('',(0.E0,5.E0,-3.E0));
#112=LINE('',#111,#110);
#113=DIRECTION('',(1.E0,0.E0,0.E0));
#114=VECTOR('',#113,2.4E1);
#115=CARTESIAN_POINT('',(0.E0,0.E0,-3.E0));
#116=LINE('',#115,#114);
#117=DIRECTION('',(1.E0,0.E0,0.E0));
#118=VECTOR('',#117,2.4E1);
#119=CARTESIAN_POINT('',(0.E0,0.E0,0.E0));
#120=LINE('',#119,#118);
#121=DIRECTION('',(0.E0,-1.E0,0.E0));
#122=VECTOR('',#121,9.E0);
#123=CARTESIAN_POINT('',(2.4E1,9.E0,0.E0));
#124=LINE('',#123,#122);
#125=DIRECTION('',(0.E0,0.E0,1.E0));
#126=VECTOR('',#125,1.E0);
#127=CARTESIAN_POINT('',(2.4E1,9.E0,-1.E0));
#128=LINE('',#127,#126);
#129=DIRECTION('',(0.E0,1.E0,0.E0));
#130=VECTOR('',#129,4.E0);
#131=CARTESIAN_POINT('',(2.4E1,5.E0,-1.E0));
#132=LINE('',#131,#130);
#133=DIRECTION('',(0.E0,0.E0,1.E0));
#134=VECTOR('',#133,2.E0);
#135=CARTESIAN_POINT('',(2.4E1,5.E0,-3.E0));
#136=LINE('',#135,#134);
#137=DIRECTION('',(0.E0,1.E0,0.E0));
#138=VECTOR('',#137,5.E0);
#139=CARTESIAN_POINT('',(2.4E1,0.E0,-3.E0));
#140=LINE('',#139,#138);
#141=DIRECTION('',(0.E0,0.E0,-1.E0));
#142=VECTOR('',#141,3.E0);
#143=CARTESIAN_POINT('',(2.4E1,0.E0,0.E0));
#144=LINE('',#143,#142);
#145=DIRECTION('',(0.E0,0.E0,1.E0));
#146=VECTOR('',#145,1.E0);
#147=CARTESIAN_POINT('',(4.5E0,5.5E0,-1.E0));
#148=LINE('',#147,#146);
#149=DIRECTION('',(0.E0,0.E0,1.E0));
#150=VECTOR('',#149,1.E0);
#151=CARTESIAN_POINT('',(4.5E0,8.5E0,-1.E0));
#152=LINE('',#151,#150);
#153=DIRECTION('',(0.E0,0.E0,1.E0));
#154=VECTOR('',#153,1.E0);
#155=CARTESIAN_POINT('',(5.5E0,8.5E0,-1.E0));
#156=LINE('',#155,#154);
#157=DIRECTION('',(0.E0,0.E0,1.E0));
#158=VECTOR('',#157,1.E0);
#159=CARTESIAN_POINT('',(5.5E0,5.5E0,-1.E0));
#160=LINE('',#159,#158);
#161=DIRECTION('',(0.E0,0.E0,1.E0));
#162=VECTOR('',#161,1.E0);
#163=CARTESIAN_POINT('',(1.85E1,5.5E0,-1.E0));
#164=LINE('',#163,#162);
#165=DIRECTION('',(0.E0,0.E0,1.E0));
#166=VECTOR('',#165,1.E0);
#167=CARTESIAN_POINT('',(1.85E1,8.5E0,-1.E0));
#168=LINE('',#167,#166);
#169=DIRECTION('',(0.E0,0.E0,1.E0));
#170=VECTOR('',#169,1.E0);
#171=CARTESIAN_POINT('',(1.95E1,8.5E0,-1.E0));
#172=LINE('',#171,#170);
#173=DIRECTION('',(0.E0,0.E0,1.E0));
#174=VECTOR('',#173,1.E0);
#175=CARTESIAN_POINT('',(1.95E1,5.5E0,-1.E0));
#176=LINE('',#175,#174);
#177=CARTESIAN_POINT('',(0.E0,9.E0,0.E0));
#178=CARTESIAN_POINT('',(0.E0,0.E0,0.E0));
#179=VERTEX_POINT('',#177);
#180=VERTEX_POINT('',#178);
#181=CARTESIAN_POINT('',(0.E0,0.E0,-3.E0));
#182=VERTEX_POINT('',#181);
#183=CARTESIAN_POINT('',(0.E0,5.E0,-3.E0));
#184=VERTEX_POINT('',#183);
#185=CARTESIAN_POINT('',(0.E0,5.E0,-1.E0));
#186=VERTEX_POINT('',#185);
#187=CARTESIAN_POINT('',(0.E0,9.E0,-1.E0));
#188=VERTEX_POINT('',#187);
#189=CARTESIAN_POINT('',(2.4E1,9.E0,0.E0));
#190=CARTESIAN_POINT('',(2.4E1,0.E0,0.E0));
#191=VERTEX_POINT('',#189);
#192=VERTEX_POINT('',#190);
#193=CARTESIAN_POINT('',(2.4E1,0.E0,-3.E0));
#194=VERTEX_POINT('',#193);
#195=CARTESIAN_POINT('',(2.4E1,5.E0,-3.E0));
#196=VERTEX_POINT('',#195);
#197=CARTESIAN_POINT('',(2.4E1,5.E0,-1.E0));
#198=VERTEX_POINT('',#197);
#199=CARTESIAN_POINT('',(2.4E1,9.E0,-1.E0));
#200=VERTEX_POINT('',#199);
#201=CARTESIAN_POINT('',(4.5E0,5.5E0,0.E0));
#202=CARTESIAN_POINT('',(4.5E0,8.5E0,0.E0));
#203=VERTEX_POINT('',#201);
#204=VERTEX_POINT('',#202);
#205=CARTESIAN_POINT('',(5.5E0,8.5E0,0.E0));
#206=VERTEX_POINT('',#205);
#207=CARTESIAN_POINT('',(5.5E0,5.5E0,0.E0));
#208=VERTEX_POINT('',#207);
#209=CARTESIAN_POINT('',(1.85E1,5.5E0,0.E0));
#210=CARTESIAN_POINT('',(1.85E1,8.5E0,0.E0));
#211=VERTEX_POINT('',#209);
#212=VERTEX_POINT('',#210);
#213=CARTESIAN_POINT('',(1.95E1,8.5E0,0.E0));
#214=VERTEX_POINT('',#213);
#215=CARTESIAN_POINT('',(1.95E1,5.5E0,0.E0));
#216=VERTEX_POINT('',#215);
#217=CARTESIAN_POINT('',(4.5E0,5.5E0,-1.E0));
#218=CARTESIAN_POINT('',(4.5E0,8.5E0,-1.E0));
#219=VERTEX_POINT('',#217);
#220=VERTEX_POINT('',#218);
#221=CARTESIAN_POINT('',(5.5E0,8.5E0,-1.E0));
#222=VERTEX_POINT('',#221);
#223=CARTESIAN_POINT('',(5.5E0,5.5E0,-1.E0));
#224=VERTEX_POINT('',#223);
#225=CARTESIAN_POINT('',(1.85E1,5.5E0,-1.E0));
#226=CARTESIAN_POINT('',(1.85E1,8.5E0,-1.E0));
#227=VERTEX_POINT('',#225);
#228=VERTEX_POINT('',#226);
#229=CARTESIAN_POINT('',(1.95E1,8.5E0,-1.E0));
#230=VERTEX_POINT('',#229);
#231=CARTESIAN_POINT('',(1.95E1,5.5E0,-1.E0));
#232=VERTEX_POINT('',#231);
#233=CARTESIAN_POINT('',(0.E0,0.E0,0.E0));
#234=DIRECTION('',(1.E0,0.E0,0.E0));
#235=DIRECTION('',(0.E0,-1.E0,0.E0));
#236=AXIS2_PLACEMENT_3D('',#233,#234,#235);
#237=PLANE('',#236);
#239=ORIENTED_EDGE('',*,*,#238,.T.);
#241=ORIENTED_EDGE('',*,*,#240,.T.);
#243=ORIENTED_EDGE('',*,*,#242,.T.);
#245=ORIENTED_EDGE('',*,*,#244,.T.);
#247=ORIENTED_EDGE('',*,*,#246,.T.);
#249=ORIENTED_EDGE('',*,*,#248,.T.);
#250=EDGE_LOOP('',(#239,#241,#243,#245,#247,#249));
#251=FACE_OUTER_BOUND('',#250,.F.);
#252=ADVANCED_FACE('',(#251),#237,.F.);
#253=CARTESIAN_POINT('',(0.E0,9.E0,0.E0));
#254=DIRECTION('',(0.E0,0.E0,1.E0));
#255=DIRECTION('',(0.E0,-1.E0,0.E0));
#256=AXIS2_PLACEMENT_3D('',#253,#254,#255);
#257=PLANE('',#256);
#258=ORIENTED_EDGE('',*,*,#238,.F.);
#260=ORIENTED_EDGE('',*,*,#259,.T.);
#262=ORIENTED_EDGE('',*,*,#261,.T.);
#264=ORIENTED_EDGE('',*,*,#263,.F.);
#265=EDGE_LOOP('',(#258,#260,#262,#264));
#266=FACE_OUTER_BOUND('',#265,.F.);
#268=ORIENTED_EDGE('',*,*,#267,.F.);
#270=ORIENTED_EDGE('',*,*,#269,.F.);
#272=ORIENTED_EDGE('',*,*,#271,.F.);
#274=ORIENTED_EDGE('',*,*,#273,.F.);
#275=EDGE_LOOP('',(#268,#270,#272,#274));
#276=FACE_BOUND('',#275,.F.);
#278=ORIENTED_EDGE('',*,*,#277,.F.);
#280=ORIENTED_EDGE('',*,*,#279,.F.);
#282=ORIENTED_EDGE('',*,*,#281,.F.);
#284=ORIENTED_EDGE('',*,*,#283,.F.);
#285=EDGE_LOOP('',(#278,#280,#282,#284));
#286=FACE_BOUND('',#285,.F.);
#287=ADVANCED_FACE('',(#266,#276,#286),#257,.T.);
#288=CARTESIAN_POINT('',(0.E0,9.E0,-1.E0));
#289=DIRECTION('',(0.E0,1.E0,0.E0));
#290=DIRECTION('',(0.E0,0.E0,1.E0));
#291=AXIS2_PLACEMENT_3D('',#288,#289,#290);
#292=PLANE('',#291);
#293=ORIENTED_EDGE('',*,*,#248,.F.);
#295=ORIENTED_EDGE('',*,*,#294,.T.);
#297=ORIENTED_EDGE('',*,*,#296,.T.);
#298=ORIENTED_EDGE('',*,*,#259,.F.);
#299=EDGE_LOOP('',(#293,#295,#297,#298));
#300=FACE_OUTER_BOUND('',#299,.F.);
#301=ADVANCED_FACE('',(#300),#292,.T.);
#302=CARTESIAN_POINT('',(0.E0,5.E0,-1.E0));
#303=DIRECTION('',(0.E0,0.E0,-1.E0));
#304=DIRECTION('',(0.E0,1.E0,0.E0));
#305=AXIS2_PLACEMENT_3D('',#302,#303,#304);
#306=PLANE('',#305);
#307=ORIENTED_EDGE('',*,*,#246,.F.);
#309=ORIENTED_EDGE('',*,*,#308,.T.);
#311=ORIENTED_EDGE('',*,*,#310,.T.);
#312=ORIENTED_EDGE('',*,*,#294,.F.);
#313=EDGE_LOOP('',(#307,#309,#311,#312));
#314=FACE_OUTER_BOUND('',#313,.F.);
#316=ORIENTED_EDGE('',*,*,#315,.T.);
#318=ORIENTED_EDGE('',*,*,#317,.T.);
#320=ORIENTED_EDGE('',*,*,#319,.T.);
#322=ORIENTED_EDGE('',*,*,#321,.T.);
#323=EDGE_LOOP('',(#316,#318,#320,#322));
#324=FACE_BOUND('',#323,.F.);
#326=ORIENTED_EDGE('',*,*,#325,.T.);
#328=ORIENTED_EDGE('',*,*,#327,.T.);
#330=ORIENTED_EDGE('',*,*,#329,.T.);
#332=ORIENTED_EDGE('',*,*,#331,.T.);
#333=EDGE_LOOP('',(#326,#328,#330,#332));
#334=FACE_BOUND('',#333,.F.);
#335=ADVANCED_FACE('',(#314,#324,#334),#306,.T.);
#336=CARTESIAN_POINT('',(0.E0,5.E0,-3.E0));
#337=DIRECTION('',(0.E0,1.E0,0.E0));
#338=DIRECTION('',(0.E0,0.E0,1.E0));
#339=AXIS2_PLACEMENT_3D('',#336,#337,#338);
#340=PLANE('',#339);
#341=ORIENTED_EDGE('',*,*,#244,.F.);
#343=ORIENTED_EDGE('',*,*,#342,.T.);
#345=ORIENTED_EDGE('',*,*,#344,.T.);
#346=ORIENTED_EDGE('',*,*,#308,.F.);
#347=EDGE_LOOP('',(#341,#343,#345,#346));
#348=FACE_OUTER_BOUND('',#347,.F.);
#349=ADVANCED_FACE('',(#348),#340,.T.);
#350=CARTESIAN_POINT('',(0.E0,0.E0,-3.E0));
#351=DIRECTION('',(0.E0,0.E0,-1.E0));
#352=DIRECTION('',(0.E0,1.E0,0.E0));
#353=AXIS2_PLACEMENT_3D('',#350,#351,#352);
#354=PLANE('',#353);
#355=ORIENTED_EDGE('',*,*,#242,.F.);
#357=ORIENTED_EDGE('',*,*,#356,.T.);
#359=ORIENTED_EDGE('',*,*,#358,.T.);
#360=ORIENTED_EDGE('',*,*,#342,.F.);
#361=EDGE_LOOP('',(#355,#357,#359,#360));
#362=FACE_OUTER_BOUND('',#361,.F.);
#363=ADVANCED_FACE('',(#362),#354,.T.);
#364=CARTESIAN_POINT('',(0.E0,0.E0,0.E0));
#365=DIRECTION('',(0.E0,-1.E0,0.E0));
#366=DIRECTION('',(0.E0,0.E0,-1.E0));
#367=AXIS2_PLACEMENT_3D('',#364,#365,#366);
#368=PLANE('',#367);
#369=ORIENTED_EDGE('',*,*,#240,.F.);
#370=ORIENTED_EDGE('',*,*,#263,.T.);
#372=ORIENTED_EDGE('',*,*,#371,.T.);
#373=ORIENTED_EDGE('',*,*,#356,.F.);
#374=EDGE_LOOP('',(#369,#370,#372,#373));
#375=FACE_OUTER_BOUND('',#374,.F.);
#376=ADVANCED_FACE('',(#375),#368,.T.);
#377=CARTESIAN_POINT('',(2.4E1,0.E0,0.E0));
#378=DIRECTION('',(1.E0,0.E0,0.E0));
#379=DIRECTION('',(0.E0,-1.E0,0.E0));
#380=AXIS2_PLACEMENT_3D('',#377,#378,#379);
#381=PLANE('',#380);
#382=ORIENTED_EDGE('',*,*,#261,.F.);
#383=ORIENTED_EDGE('',*,*,#296,.F.);
#384=ORIENTED_EDGE('',*,*,#310,.F.);
#385=ORIENTED_EDGE('',*,*,#344,.F.);
#386=ORIENTED_EDGE('',*,*,#358,.F.);
#387=ORIENTED_EDGE('',*,*,#371,.F.);
#388=EDGE_LOOP('',(#382,#383,#384,#385,#386,#387));
#389=FACE_OUTER_BOUND('',#388,.F.);
#390=ADVANCED_FACE('',(#389),#381,.T.);
#391=CARTESIAN_POINT('',(4.5E0,7.E0,-1.E0));
#392=DIRECTION('',(0.E0,0.E0,-1.E0));
#393=DIRECTION('',(1.E0,0.E0,0.E0));
#394=AXIS2_PLACEMENT_3D('',#391,#392,#393);
#395=CYLINDRICAL_SURFACE('',#394,1.5E0);
#396=ORIENTED_EDGE('',*,*,#267,.T.);
#398=ORIENTED_EDGE('',*,*,#397,.F.);
#399=ORIENTED_EDGE('',*,*,#315,.F.);
#401=ORIENTED_EDGE('',*,*,#400,.T.);
#402=EDGE_LOOP('',(#396,#398,#399,#401));
#403=FACE_OUTER_BOUND('',#402,.F.);
#404=ADVANCED_FACE('',(#403),#395,.F.);
#405=CARTESIAN_POINT('',(4.5E0,8.5E0,-1.E0));
#406=DIRECTION('',(0.E0,1.E0,0.E0));
#407=DIRECTION('',(1.E0,0.E0,0.E0));
#408=AXIS2_PLACEMENT_3D('',#405,#406,#407);
#409=PLANE('',#408);
#410=ORIENTED_EDGE('',*,*,#273,.T.);
#412=ORIENTED_EDGE('',*,*,#411,.F.);
#413=ORIENTED_EDGE('',*,*,#317,.F.);
#414=ORIENTED_EDGE('',*,*,#397,.T.);
#415=EDGE_LOOP('',(#410,#412,#413,#414));
#416=FACE_OUTER_BOUND('',#415,.F.);
#417=ADVANCED_FACE('',(#416),#409,.F.);
#418=CARTESIAN_POINT('',(5.5E0,7.E0,-1.E0));
#419=DIRECTION('',(0.E0,0.E0,-1.E0));
#420=DIRECTION('',(1.E0,0.E0,0.E0));
#421=AXIS2_PLACEMENT_3D('',#418,#419,#420);
#422=CYLINDRICAL_SURFACE('',#421,1.5E0);
#423=ORIENTED_EDGE('',*,*,#271,.T.);
#425=ORIENTED_EDGE('',*,*,#424,.F.);
#426=ORIENTED_EDGE('',*,*,#319,.F.);
#427=ORIENTED_EDGE('',*,*,#411,.T.);
#428=EDGE_LOOP('',(#423,#425,#426,#427));
#429=FACE_OUTER_BOUND('',#428,.F.);
#430=ADVANCED_FACE('',(#429),#422,.F.);
#431=CARTESIAN_POINT('',(5.5E0,5.5E0,-1.E0));
#432=DIRECTION('',(0.E0,-1.E0,0.E0));
#433=DIRECTION('',(-1.E0,0.E0,0.E0));
#434=AXIS2_PLACEMENT_3D('',#431,#432,#433);
#435=PLANE('',#434);
#436=ORIENTED_EDGE('',*,*,#269,.T.);
#437=ORIENTED_EDGE('',*,*,#400,.F.);
#438=ORIENTED_EDGE('',*,*,#321,.F.);
#439=ORIENTED_EDGE('',*,*,#424,.T.);
#440=EDGE_LOOP('',(#436,#437,#438,#439));
#441=FACE_OUTER_BOUND('',#440,.F.);
#442=ADVANCED_FACE('',(#441),#435,.F.);
#443=CARTESIAN_POINT('',(1.85E1,7.E0,-1.E0));
#444=DIRECTION('',(0.E0,0.E0,-1.E0));
#445=DIRECTION('',(1.E0,0.E0,0.E0));
#446=AXIS2_PLACEMENT_3D('',#443,#444,#445);
#447=CYLINDRICAL_SURFACE('',#446,1.5E0);
#448=ORIENTED_EDGE('',*,*,#277,.T.);
#450=ORIENTED_EDGE('',*,*,#449,.F.);
#451=ORIENTED_EDGE('',*,*,#325,.F.);
#453=ORIENTED_EDGE('',*,*,#452,.T.);
#454=EDGE_LOOP('',(#448,#450,#451,#453));
#455=FACE_OUTER_BOUND('',#454,.F.);
#456=ADVANCED_FACE('',(#455),#447,.F.);
#457=CARTESIAN_POINT('',(1.85E1,8.5E0,-1.E0));
#458=DIRECTION('',(0.E0,1.E0,0.E0));
#459=DIRECTION('',(1.E0,0.E0,0.E0));
#460=AXIS2_PLACEMENT_3D('',#457,#458,#459);
#461=PLANE('',#460);
#462=ORIENTED_EDGE('',*,*,#283,.T.);
#464=ORIENTED_EDGE('',*,*,#463,.F.);
#465=ORIENTED_EDGE('',*,*,#327,.F.);
#466=ORIENTED_EDGE('',*,*,#449,.T.);
#467=EDGE_LOOP('',(#462,#464,#465,#466));
#468=FACE_OUTER_BOUND('',#467,.F.);
#469=ADVANCED_FACE('',(#468),#461,.F.);
#470=CARTESIAN_POINT('',(1.95E1,7.E0,-1.E0));
#471=DIRECTION('',(0.E0,0.E0,-1.E0));
#472=DIRECTION('',(1.E0,0.E0,0.E0));
#473=AXIS2_PLACEMENT_3D('',#470,#471,#472);
#474=CYLINDRICAL_SURFACE('',#473,1.5E0);
#475=ORIENTED_EDGE('',*,*,#281,.T.);
#477=ORIENTED_EDGE('',*,*,#476,.F.);
#478=ORIENTED_EDGE('',*,*,#329,.F.);
#479=ORIENTED_EDGE('',*,*,#463,.T.);
#480=EDGE_LOOP('',(#475,#477,#478,#479));
#481=FACE_OUTER_BOUND('',#480,.F.);
#482=ADVANCED_FACE('',(#481),#474,.F.);
#483=CARTESIAN_POINT('',(1.95E1,5.5E0,-1.E0));
#484=DIRECTION('',(0.E0,-1.E0,0.E0));
#485=DIRECTION('',(-1.E0,0.E0,0.E0));
#486=AXIS2_PLACEMENT_3D('',#483,#484,#485);
#487=PLANE('',#486);
#488=ORIENTED_EDGE('',*,*,#279,.T.);
#489=ORIENTED_EDGE('',*,*,#452,.F.);
#490=ORIENTED_EDGE('',*,*,#331,.F.);
#491=ORIENTED_EDGE('',*,*,#476,.T.);
#492=EDGE_LOOP('',(#488,#489,#490,#491));
#493=FACE_OUTER_BOUND('',#492,.F.);
#494=ADVANCED_FACE('',(#493),#487,.F.);
#498=DIMENSIONAL_EXPONENTS(0.E0,0.E0,0.E0,0.E0,0.E0,0.E0,0.E0);
#500=PLANE_ANGLE_MEASURE_WITH_UNIT(PLANE_ANGLE_MEASURE(1.745329251994E-2),#499);
#501=(CONVERSION_BASED_UNIT('DEGREE',#500)NAMED_UNIT(*)PLANE_ANGLE_UNIT());
#503=UNCERTAINTY_MEASURE_WITH_UNIT(LENGTH_MEASURE(9.906E-3),#497,'closure',
'Maximum model space distance between geometric entities at asserted connectivities');
#504=(GEOMETRIC_REPRESENTATION_CONTEXT(3)GLOBAL_UNCERTAINTY_ASSIGNED_CONTEXT((
#503))GLOBAL_UNIT_ASSIGNED_CONTEXT((#497,#501,#502))REPRESENTATION_CONTEXT
('ID1','3'));
#506=APPLICATION_CONTEXT(
'CONFIGURATION CONTROLLED 3D DESIGNS OF MECHANICAL PARTS AND ASSEMBLIES');
#507=APPLICATION_PROTOCOL_DEFINITION('international standard',
'config_control_design',1994,#506);
#508=DESIGN_CONTEXT('',#506,'design');
#509=MECHANICAL_CONTEXT('',#506,'mechanical');
#510=PRODUCT('SWITCH','SWITCH','NOT SPECIFIED',(#509));
#511=PRODUCT_DEFINITION_FORMATION_WITH_SPECIFIED_SOURCE('1','LAST_VERSION',#510,
.MADE.);
#515=PRODUCT_CATEGORY('part','');
#516=PRODUCT_RELATED_PRODUCT_CATEGORY('detail','',(#510));
#517=PRODUCT_CATEGORY_RELATIONSHIP('','',#515,#516);
#518=SECURITY_CLASSIFICATION_LEVEL('unclassified');
#519=SECURITY_CLASSIFICATION('','',#518);
#520=CC_DESIGN_SECURITY_CLASSIFICATION(#519,(#511));
#521=APPROVAL_STATUS('approved');
#522=APPROVAL(#521,'');
#523=CC_DESIGN_APPROVAL(#522,(#519,#511,#512));
#524=CALENDAR_DATE(126,15,2);
#525=COORDINATED_UNIVERSAL_TIME_OFFSET(1,0,.AHEAD.);
#526=LOCAL_TIME(17,2,5.7E1,#525);
#527=DATE_AND_TIME(#524,#526);
#528=APPROVAL_DATE_TIME(#527,#522);
#529=DATE_TIME_ROLE('creation_date');
#530=CC_DESIGN_DATE_AND_TIME_ASSIGNMENT(#527,#529,(#512));
#531=DATE_TIME_ROLE('classification_date');
#532=CC_DESIGN_DATE_AND_TIME_ASSIGNMENT(#527,#531,(#519));
#533=PERSON('UNSPECIFIED','UNSPECIFIED',$,$,$,$);
#534=ORGANIZATION('UNSPECIFIED','UNSPECIFIED','UNSPECIFIED');
#535=PERSON_AND_ORGANIZATION(#533,#534);
#536=APPROVAL_ROLE('approver');
#537=APPROVAL_PERSON_ORGANIZATION(#535,#522,#536);
#538=PERSON_AND_ORGANIZATION_ROLE('creator');
#539=CC_DESIGN_PERSON_AND_ORGANIZATION_ASSIGNMENT(#535,#538,(#511,#512));
#540=PERSON_AND_ORGANIZATION_ROLE('design_supplier');
#541=CC_DESIGN_PERSON_AND_ORGANIZATION_ASSIGNMENT(#535,#540,(#511));
#542=PERSON_AND_ORGANIZATION_ROLE('classification_officer');
#543=CC_DESIGN_PERSON_AND_ORGANIZATION_ASSIGNMENT(#535,#542,(#519));
#544=PERSON_AND_ORGANIZATION_ROLE('design_owner');
#545=CC_DESIGN_PERSON_AND_ORGANIZATION_ASSIGNMENT(#535,#544,(#510));
#33=CIRCLE('',#32,1.5E0);
#42=CIRCLE('',#41,1.5E0);
#51=CIRCLE('',#50,1.5E0);
#60=CIRCLE('',#59,1.5E0);
#77=CIRCLE('',#76,1.5E0);
#86=CIRCLE('',#85,1.5E0);
#95=CIRCLE('',#94,1.5E0);
#104=CIRCLE('',#103,1.5E0);
#238=EDGE_CURVE('',#179,#180,#4,.T.);
#240=EDGE_CURVE('',#180,#182,#8,.T.);
#242=EDGE_CURVE('',#182,#184,#12,.T.);
#244=EDGE_CURVE('',#184,#186,#16,.T.);
#246=EDGE_CURVE('',#186,#188,#20,.T.);
#248=EDGE_CURVE('',#188,#179,#24,.T.);
#259=EDGE_CURVE('',#179,#191,#28,.T.);
#261=EDGE_CURVE('',#191,#192,#124,.T.);
#263=EDGE_CURVE('',#180,#192,#120,.T.);
#267=EDGE_CURVE('',#203,#204,#33,.T.);
#269=EDGE_CURVE('',#208,#203,#37,.T.);
#271=EDGE_CURVE('',#206,#208,#42,.T.);
#273=EDGE_CURVE('',#204,#206,#46,.T.);
#277=EDGE_CURVE('',#211,#212,#51,.T.);
#279=EDGE_CURVE('',#216,#211,#55,.T.);
#281=EDGE_CURVE('',#214,#216,#60,.T.);
#283=EDGE_CURVE('',#212,#214,#64,.T.);
#294=EDGE_CURVE('',#188,#200,#68,.T.);
#296=EDGE_CURVE('',#200,#191,#128,.T.);
#308=EDGE_CURVE('',#186,#198,#72,.T.);
#310=EDGE_CURVE('',#198,#200,#132,.T.);
#315=EDGE_CURVE('',#219,#220,#77,.T.);
#317=EDGE_CURVE('',#220,#222,#81,.T.);
#319=EDGE_CURVE('',#222,#224,#86,.T.);
#321=EDGE_CURVE('',#224,#219,#90,.T.);
#325=EDGE_CURVE('',#227,#228,#95,.T.);
#327=EDGE_CURVE('',#228,#230,#99,.T.);
#329=EDGE_CURVE('',#230,#232,#104,.T.);
#331=EDGE_CURVE('',#232,#227,#108,.T.);
#342=EDGE_CURVE('',#184,#196,#112,.T.);
#344=EDGE_CURVE('',#196,#198,#136,.T.);
#356=EDGE_CURVE('',#182,#194,#116,.T.);
#358=EDGE_CURVE('',#194,#196,#140,.T.);
#371=EDGE_CURVE('',#192,#194,#144,.T.);
#397=EDGE_CURVE('',#220,#204,#152,.T.);
#400=EDGE_CURVE('',#219,#203,#148,.T.);
#411=EDGE_CURVE('',#222,#206,#156,.T.);
#424=EDGE_CURVE('',#224,#208,#160,.T.);
#449=EDGE_CURVE('',#228,#212,#168,.T.);
#452=EDGE_CURVE('',#227,#211,#164,.T.);
#463=EDGE_CURVE('',#230,#214,#172,.T.);
#476=EDGE_CURVE('',#232,#216,#176,.T.);
#495=CLOSED_SHELL('',(#252,#287,#301,#335,#349,#363,#376,#390,#404,#417,#430,
#442,#456,#469,#482,#494));
#496=MANIFOLD_SOLID_BREP('',#495);
#497=(LENGTH_UNIT()NAMED_UNIT(*)SI_UNIT(.MILLI.,.METRE.));
#499=(NAMED_UNIT(*)PLANE_ANGLE_UNIT()SI_UNIT($,.RADIAN.));
#502=(NAMED_UNIT(*)SI_UNIT($,.STERADIAN.)SOLID_ANGLE_UNIT());
#505=ADVANCED_BREP_SHAPE_REPRESENTATION('',(#496),#504);
#512=PRODUCT_DEFINITION('design','',#511,#508);
#513=PRODUCT_DEFINITION_SHAPE('','SHAPE FOR SWITCH.',#512);
#514=SHAPE_DEFINITION_REPRESENTATION(#513,#505);
ENDSEC;
END-ISO-10303-21;
