ISO-10303-21;
HEADER;
FILE_DESCRIPTION(('FreeCAD Model'),'2;1');
FILE_NAME('Open CASCADE Shape Model','2026-02-27T21:49:07',(''),(''),
  'Open CASCADE STEP processor 7.8','FreeCAD','Unknown');
FILE_SCHEMA(('AUTOMOTIVE_DESIGN { 1 0 10303 214 1 1 1 1 }'));
ENDSEC;
DATA;
#1 = APPLICATION_PROTOCOL_DEFINITION('international standard',
  'automotive_design',2000,#2);
#2 = APPLICATION_CONTEXT(
  'core data for automotive mechanical design processes');
#3 = SHAPE_DEFINITION_REPRESENTATION(#4,#10);
#4 = PRODUCT_DEFINITION_SHAPE('','',#5);
#5 = PRODUCT_DEFINITION('design','',#6,#9);
#6 = PRODUCT_DEFINITION_FORMATION('','',#7);
#7 = PRODUCT('Corps','Corps','',(#8));
#8 = PRODUCT_CONTEXT('',#2,'mechanical');
#9 = PRODUCT_DEFINITION_CONTEXT('part definition',#2,'design');
#10 = ADVANCED_BREP_SHAPE_REPRESENTATION('',(#11,#15),#370);
#11 = AXIS2_PLACEMENT_3D('',#12,#13,#14);
#12 = CARTESIAN_POINT('',(0.,0.,0.));
#13 = DIRECTION('',(0.,0.,1.));
#14 = DIRECTION('',(1.,0.,-0.));
#15 = MANIFOLD_SOLID_BREP('',#16);
#16 = CLOSED_SHELL('',(#17,#50,#75,#100,#120,#140,#165,#190,#210,#230,
    #266,#291,#352));
#17 = ADVANCED_FACE('',(#18),#45,.F.);
#18 = FACE_BOUND('',#19,.T.);
#19 = EDGE_LOOP('',(#20,#30,#37,#38));
#20 = ORIENTED_EDGE('',*,*,#21,.F.);
#21 = EDGE_CURVE('',#22,#24,#26,.T.);
#22 = VERTEX_POINT('',#23);
#23 = CARTESIAN_POINT('',(3.,0.,1.));
#24 = VERTEX_POINT('',#25);
#25 = CARTESIAN_POINT('',(3.,0.,16.));
#26 = LINE('',#27,#28);
#27 = CARTESIAN_POINT('',(3.,0.,0.));
#28 = VECTOR('',#29,1.);
#29 = DIRECTION('',(0.,-2.2E-16,1.));
#30 = ORIENTED_EDGE('',*,*,#31,.T.);
#31 = EDGE_CURVE('',#22,#22,#32,.T.);
#32 = CIRCLE('',#33,3.);
#33 = AXIS2_PLACEMENT_3D('',#34,#35,#36);
#34 = CARTESIAN_POINT('',(1.1E-16,1.1E-16,1.));
#35 = DIRECTION('',(-1.1E-16,-1.1E-16,-1.));
#36 = DIRECTION('',(1.,0.,-1.1E-16));
#37 = ORIENTED_EDGE('',*,*,#21,.T.);
#38 = ORIENTED_EDGE('',*,*,#39,.F.);
#39 = EDGE_CURVE('',#24,#24,#40,.T.);
#40 = CIRCLE('',#41,3.);
#41 = AXIS2_PLACEMENT_3D('',#42,#43,#44);
#42 = CARTESIAN_POINT('',(1.78E-15,1.78E-15,16.));
#43 = DIRECTION('',(-1.1E-16,-1.1E-16,-1.));
#44 = DIRECTION('',(1.,6.3E-16,-1.1E-16));
#45 = CYLINDRICAL_SURFACE('',#46,3.);
#46 = AXIS2_PLACEMENT_3D('',#47,#48,#49);
#47 = CARTESIAN_POINT('',(0.,0.,3.3E-16));
#48 = DIRECTION('',(1.1E-16,1.1E-16,1.));
#49 = DIRECTION('',(1.,0.,-1.1E-16));
#50 = ADVANCED_FACE('',(#51),#70,.F.);
#51 = FACE_BOUND('',#52,.F.);
#52 = EDGE_LOOP('',(#53,#61,#62,#63));
#53 = ORIENTED_EDGE('',*,*,#54,.F.);
#54 = EDGE_CURVE('',#22,#55,#57,.T.);
#55 = VERTEX_POINT('',#56);
#56 = CARTESIAN_POINT('',(4.,0.,0.));
#57 = LINE('',#58,#59);
#58 = CARTESIAN_POINT('',(3.,1.1E-16,1.));
#59 = VECTOR('',#60,1.);
#60 = DIRECTION('',(0.707106781187,-8.E-17,-0.707106781187));
#61 = ORIENTED_EDGE('',*,*,#31,.T.);
#62 = ORIENTED_EDGE('',*,*,#54,.T.);
#63 = ORIENTED_EDGE('',*,*,#64,.F.);
#64 = EDGE_CURVE('',#55,#55,#65,.T.);
#65 = CIRCLE('',#66,4.);
#66 = AXIS2_PLACEMENT_3D('',#67,#68,#69);
#67 = CARTESIAN_POINT('',(0.,0.,3.3E-16));
#68 = DIRECTION('',(-1.1E-16,-1.1E-16,-1.));
#69 = DIRECTION('',(1.,0.,-1.1E-16));
#70 = CONICAL_SURFACE('',#71,3.,0.785398163397);
#71 = AXIS2_PLACEMENT_3D('',#72,#73,#74);
#72 = CARTESIAN_POINT('',(1.1E-16,1.1E-16,1.));
#73 = DIRECTION('',(-1.1E-16,-1.1E-16,-1.));
#74 = DIRECTION('',(1.,0.,-1.1E-16));
#75 = ADVANCED_FACE('',(#76),#95,.F.);
#76 = FACE_BOUND('',#77,.T.);
#77 = EDGE_LOOP('',(#78,#86,#87,#88));
#78 = ORIENTED_EDGE('',*,*,#79,.F.);
#79 = EDGE_CURVE('',#24,#80,#82,.T.);
#80 = VERTEX_POINT('',#81);
#81 = CARTESIAN_POINT('',(4.,1.E-15,17.));
#82 = LINE('',#83,#84);
#83 = CARTESIAN_POINT('',(3.,3.66E-15,16.));
#84 = VECTOR('',#85,1.);
#85 = DIRECTION('',(0.707106781187,5.2E-16,0.707106781187));
#86 = ORIENTED_EDGE('',*,*,#39,.T.);
#87 = ORIENTED_EDGE('',*,*,#79,.T.);
#88 = ORIENTED_EDGE('',*,*,#89,.F.);
#89 = EDGE_CURVE('',#80,#80,#90,.T.);
#90 = CIRCLE('',#91,4.);
#91 = AXIS2_PLACEMENT_3D('',#92,#93,#94);
#92 = CARTESIAN_POINT('',(1.89E-15,1.89E-15,17.));
#93 = DIRECTION('',(-1.1E-16,-1.1E-16,-1.));
#94 = DIRECTION('',(1.,6.3E-16,-1.1E-16));
#95 = CONICAL_SURFACE('',#96,3.,0.785398163397);
#96 = AXIS2_PLACEMENT_3D('',#97,#98,#99);
#97 = CARTESIAN_POINT('',(1.78E-15,1.78E-15,16.));
#98 = DIRECTION('',(1.1E-16,1.1E-16,1.));
#99 = DIRECTION('',(1.,6.3E-16,-1.1E-16));
#100 = ADVANCED_FACE('',(#101,#104),#115,.F.);
#101 = FACE_BOUND('',#102,.F.);
#102 = EDGE_LOOP('',(#103));
#103 = ORIENTED_EDGE('',*,*,#64,.T.);
#104 = FACE_BOUND('',#105,.F.);
#105 = EDGE_LOOP('',(#106));
#106 = ORIENTED_EDGE('',*,*,#107,.F.);
#107 = EDGE_CURVE('',#108,#108,#110,.T.);
#108 = VERTEX_POINT('',#109);
#109 = CARTESIAN_POINT('',(7.5,0.,0.));
#110 = CIRCLE('',#111,7.5);
#111 = AXIS2_PLACEMENT_3D('',#112,#113,#114);
#112 = CARTESIAN_POINT('',(0.,0.,8.3E-16));
#113 = DIRECTION('',(-1.1E-16,-1.1E-16,-1.));
#114 = DIRECTION('',(1.,0.,-1.1E-16));
#115 = PLANE('',#116);
#116 = AXIS2_PLACEMENT_3D('',#117,#118,#119);
#117 = CARTESIAN_POINT('',(0.,0.,3.3E-16));
#118 = DIRECTION('',(1.1E-16,1.1E-16,1.));
#119 = DIRECTION('',(-1.,0.,1.1E-16));
#120 = ADVANCED_FACE('',(#121,#124),#135,.T.);
#121 = FACE_BOUND('',#122,.T.);
#122 = EDGE_LOOP('',(#123));
#123 = ORIENTED_EDGE('',*,*,#89,.T.);
#124 = FACE_BOUND('',#125,.T.);
#125 = EDGE_LOOP('',(#126));
#126 = ORIENTED_EDGE('',*,*,#127,.F.);
#127 = EDGE_CURVE('',#128,#128,#130,.T.);
#128 = VERTEX_POINT('',#129);
#129 = CARTESIAN_POINT('',(10.,0.,17.));
#130 = CIRCLE('',#131,10.);
#131 = AXIS2_PLACEMENT_3D('',#132,#133,#134);
#132 = CARTESIAN_POINT('',(1.89E-15,1.89E-15,17.));
#133 = DIRECTION('',(-1.1E-16,-1.1E-16,-1.));
#134 = DIRECTION('',(1.,1.9E-16,-1.1E-16));
#135 = PLANE('',#136);
#136 = AXIS2_PLACEMENT_3D('',#137,#138,#139);
#137 = CARTESIAN_POINT('',(1.89E-15,1.89E-15,17.));
#138 = DIRECTION('',(1.1E-16,1.1E-16,1.));
#139 = DIRECTION('',(-1.,-6.3E-16,1.1E-16));
#140 = ADVANCED_FACE('',(#141),#160,.T.);
#141 = FACE_BOUND('',#142,.F.);
#142 = EDGE_LOOP('',(#143,#144,#152,#159));
#143 = ORIENTED_EDGE('',*,*,#107,.T.);
#144 = ORIENTED_EDGE('',*,*,#145,.T.);
#145 = EDGE_CURVE('',#108,#146,#148,.T.);
#146 = VERTEX_POINT('',#147);
#147 = CARTESIAN_POINT('',(7.5,0.,10.));
#148 = LINE('',#149,#150);
#149 = CARTESIAN_POINT('',(7.5,0.,0.));
#150 = VECTOR('',#151,1.);
#151 = DIRECTION('',(0.,-2.2E-16,1.));
#152 = ORIENTED_EDGE('',*,*,#153,.F.);
#153 = EDGE_CURVE('',#146,#146,#154,.T.);
#154 = CIRCLE('',#155,7.5);
#155 = AXIS2_PLACEMENT_3D('',#156,#157,#158);
#156 = CARTESIAN_POINT('',(1.11E-15,1.11E-15,10.));
#157 = DIRECTION('',(-1.1E-16,-1.1E-16,-1.));
#158 = DIRECTION('',(1.,1.5E-16,-1.1E-16));
#159 = ORIENTED_EDGE('',*,*,#145,.F.);
#160 = CYLINDRICAL_SURFACE('',#161,7.5);
#161 = AXIS2_PLACEMENT_3D('',#162,#163,#164);
#162 = CARTESIAN_POINT('',(0.,0.,8.3E-16));
#163 = DIRECTION('',(1.1E-16,1.1E-16,1.));
#164 = DIRECTION('',(1.,0.,-1.1E-16));
#165 = ADVANCED_FACE('',(#166),#185,.F.);
#166 = FACE_BOUND('',#167,.T.);
#167 = EDGE_LOOP('',(#168,#169,#177,#184));
#168 = ORIENTED_EDGE('',*,*,#127,.T.);
#169 = ORIENTED_EDGE('',*,*,#170,.T.);
#170 = EDGE_CURVE('',#128,#171,#173,.T.);
#171 = VERTEX_POINT('',#172);
#172 = CARTESIAN_POINT('',(10.,0.,28.));
#173 = LINE('',#174,#175);
#174 = CARTESIAN_POINT('',(10.,-3.77E-15,17.));
#175 = VECTOR('',#176,1.);
#176 = DIRECTION('',(0.,-2.2E-16,1.));
#177 = ORIENTED_EDGE('',*,*,#178,.F.);
#178 = EDGE_CURVE('',#171,#171,#179,.T.);
#179 = CIRCLE('',#180,10.);
#180 = AXIS2_PLACEMENT_3D('',#181,#182,#183);
#181 = CARTESIAN_POINT('',(3.11E-15,3.11E-15,28.));
#182 = DIRECTION('',(-1.1E-16,-1.1E-16,-1.));
#183 = DIRECTION('',(1.,3.1E-16,-1.1E-16));
#184 = ORIENTED_EDGE('',*,*,#170,.F.);
#185 = CYLINDRICAL_SURFACE('',#186,10.);
#186 = AXIS2_PLACEMENT_3D('',#187,#188,#189);
#187 = CARTESIAN_POINT('',(1.89E-15,1.89E-15,17.));
#188 = DIRECTION('',(1.1E-16,1.1E-16,1.));
#189 = DIRECTION('',(1.,1.9E-16,-1.1E-16));
#190 = ADVANCED_FACE('',(#191,#194),#205,.F.);
#191 = FACE_BOUND('',#192,.F.);
#192 = EDGE_LOOP('',(#193));
#193 = ORIENTED_EDGE('',*,*,#153,.T.);
#194 = FACE_BOUND('',#195,.F.);
#195 = EDGE_LOOP('',(#196));
#196 = ORIENTED_EDGE('',*,*,#197,.F.);
#197 = EDGE_CURVE('',#198,#198,#200,.T.);
#198 = VERTEX_POINT('',#199);
#199 = CARTESIAN_POINT('',(15.,0.,10.));
#200 = CIRCLE('',#201,15.);
#201 = AXIS2_PLACEMENT_3D('',#202,#203,#204);
#202 = CARTESIAN_POINT('',(1.11E-15,1.11E-15,10.));
#203 = DIRECTION('',(-1.1E-16,-1.1E-16,-1.));
#204 = DIRECTION('',(1.,7.E-17,-1.1E-16));
#205 = PLANE('',#206);
#206 = AXIS2_PLACEMENT_3D('',#207,#208,#209);
#207 = CARTESIAN_POINT('',(1.11E-15,1.11E-15,10.));
#208 = DIRECTION('',(1.1E-16,1.1E-16,1.));
#209 = DIRECTION('',(-1.,-1.5E-16,1.1E-16));
#210 = ADVANCED_FACE('',(#211,#214),#225,.T.);
#211 = FACE_BOUND('',#212,.T.);
#212 = EDGE_LOOP('',(#213));
#213 = ORIENTED_EDGE('',*,*,#178,.T.);
#214 = FACE_BOUND('',#215,.T.);
#215 = EDGE_LOOP('',(#216));
#216 = ORIENTED_EDGE('',*,*,#217,.F.);
#217 = EDGE_CURVE('',#218,#218,#220,.T.);
#218 = VERTEX_POINT('',#219);
#219 = CARTESIAN_POINT('',(12.5,0.,28.));
#220 = CIRCLE('',#221,12.5);
#221 = AXIS2_PLACEMENT_3D('',#222,#223,#224);
#222 = CARTESIAN_POINT('',(3.11E-15,3.11E-15,28.));
#223 = DIRECTION('',(-1.1E-16,-1.1E-16,-1.));
#224 = DIRECTION('',(1.,2.5E-16,-1.1E-16));
#225 = PLANE('',#226);
#226 = AXIS2_PLACEMENT_3D('',#227,#228,#229);
#227 = CARTESIAN_POINT('',(3.11E-15,3.11E-15,28.));
#228 = DIRECTION('',(1.1E-16,1.1E-16,1.));
#229 = DIRECTION('',(-1.,-3.1E-16,1.1E-16));
#230 = ADVANCED_FACE('',(#231),#261,.T.);
#231 = FACE_BOUND('',#232,.F.);
#232 = EDGE_LOOP('',(#233,#241,#242,#243));
#233 = ORIENTED_EDGE('',*,*,#234,.F.);
#234 = EDGE_CURVE('',#198,#235,#237,.T.);
#235 = VERTEX_POINT('',#236);
#236 = CARTESIAN_POINT('',(15.,-1.E-15,16.));
#237 = LINE('',#238,#239);
#238 = CARTESIAN_POINT('',(15.,-2.22E-15,10.));
#239 = VECTOR('',#240,1.);
#240 = DIRECTION('',(0.,-2.2E-16,1.));
#241 = ORIENTED_EDGE('',*,*,#197,.T.);
#242 = ORIENTED_EDGE('',*,*,#234,.T.);
#243 = ORIENTED_EDGE('',*,*,#244,.F.);
#244 = EDGE_CURVE('',#235,#235,#245,.T.);
#245 = B_SPLINE_CURVE_WITH_KNOTS('',14,(#246,#247,#248,#249,#250,#251,
    #252,#253,#254,#255,#256,#257,#258,#259,#260),.UNSPECIFIED.,.T.,.F.,
  (15,15),(1.58E-15,94.247779607694),.PIECEWISE_BEZIER_KNOTS.);
#246 = CARTESIAN_POINT('',(15.,2.89E-15,16.));
#247 = CARTESIAN_POINT('',(14.999999999996,-6.634601369122,
    16.000000000005));
#248 = CARTESIAN_POINT('',(11.840280719116,-13.41043249881,
    15.999999999977));
#249 = CARTESIAN_POINT('',(5.298026155201,-18.5614212332,16.000000000065
    ));
#250 = CARTESIAN_POINT('',(-3.625138360875,-20.25482136935,
    15.999999999863));
#251 = CARTESIAN_POINT('',(-12.86851046772,-16.90287884967,
    16.000000000228));
#252 = CARTESIAN_POINT('',(-19.06930853601,-10.26625794471,
    15.999999999698));
#253 = CARTESIAN_POINT('',(-22.9919934204,-3.4917491E-10,16.000000000318
    ));
#254 = CARTESIAN_POINT('',(-19.06930853604,10.266257945351,
    15.999999999731));
#255 = CARTESIAN_POINT('',(-12.86851046769,16.902878849191,
    16.000000000185));
#256 = CARTESIAN_POINT('',(-3.625138360909,20.254821369661,
    15.999999999898));
#257 = CARTESIAN_POINT('',(5.298026155222,18.561421233055,
    16.000000000044));
#258 = CARTESIAN_POINT('',(11.840280719108,13.410432498872,
    15.999999999986));
#259 = CARTESIAN_POINT('',(14.999999999998,6.63460136911,16.000000000003
    ));
#260 = CARTESIAN_POINT('',(15.,6.56E-15,16.));
#261 = CYLINDRICAL_SURFACE('',#262,15.);
#262 = AXIS2_PLACEMENT_3D('',#263,#264,#265);
#263 = CARTESIAN_POINT('',(1.11E-15,1.11E-15,10.));
#264 = DIRECTION('',(1.1E-16,1.1E-16,1.));
#265 = DIRECTION('',(1.,7.E-17,-1.1E-16));
#266 = ADVANCED_FACE('',(#267),#286,.T.);
#267 = FACE_BOUND('',#268,.T.);
#268 = EDGE_LOOP('',(#269,#270,#278,#285));
#269 = ORIENTED_EDGE('',*,*,#217,.T.);
#270 = ORIENTED_EDGE('',*,*,#271,.T.);
#271 = EDGE_CURVE('',#218,#272,#274,.T.);
#272 = VERTEX_POINT('',#273);
#273 = CARTESIAN_POINT('',(12.5,0.,19.5));
#274 = LINE('',#275,#276);
#275 = CARTESIAN_POINT('',(12.5,-6.22E-15,28.));
#276 = VECTOR('',#277,1.);
#277 = DIRECTION('',(0.,2.2E-16,-1.));
#278 = ORIENTED_EDGE('',*,*,#279,.F.);
#279 = EDGE_CURVE('',#272,#272,#280,.T.);
#280 = CIRCLE('',#281,12.5);
#281 = AXIS2_PLACEMENT_3D('',#282,#283,#284);
#282 = CARTESIAN_POINT('',(2.16E-15,2.16E-15,19.5));
#283 = DIRECTION('',(-1.1E-16,-1.1E-16,-1.));
#284 = DIRECTION('',(1.,1.7E-16,-1.1E-16));
#285 = ORIENTED_EDGE('',*,*,#271,.F.);
#286 = CYLINDRICAL_SURFACE('',#287,12.5);
#287 = AXIS2_PLACEMENT_3D('',#288,#289,#290);
#288 = CARTESIAN_POINT('',(3.11E-15,3.11E-15,28.));
#289 = DIRECTION('',(-1.1E-16,-1.1E-16,-1.));
#290 = DIRECTION('',(1.,2.5E-16,-1.1E-16));
#291 = ADVANCED_FACE('',(#292),#321,.F.);
#292 = FACE_BOUND('',#293,.F.);
#293 = EDGE_LOOP('',(#294,#301,#302,#303));
#294 = ORIENTED_EDGE('',*,*,#295,.T.);
#295 = EDGE_CURVE('',#296,#235,#298,.T.);
#296 = VERTEX_POINT('',#297);
#297 = CARTESIAN_POINT('',(14.020204102887,0.,17.2));
#298 = B_SPLINE_CURVE_WITH_KNOTS('',1,(#299,#300),.UNSPECIFIED.,.F.,.F.,
  (2,2),(0.,94.247779607694),.PIECEWISE_BEZIER_KNOTS.);
#299 = CARTESIAN_POINT('',(14.020204102887,3.93E-15,17.2));
#300 = CARTESIAN_POINT('',(15.,2.89E-15,16.));
#301 = ORIENTED_EDGE('',*,*,#244,.T.);
#302 = ORIENTED_EDGE('',*,*,#295,.F.);
#303 = ORIENTED_EDGE('',*,*,#304,.F.);
#304 = EDGE_CURVE('',#296,#296,#305,.T.);
#305 = B_SPLINE_CURVE_WITH_KNOTS('',14,(#306,#307,#308,#309,#310,#311,
    #312,#313,#314,#315,#316,#317,#318,#319,#320),.UNSPECIFIED.,.T.,.F.,
  (15,15),(1.58E-15,94.247779607694),.PIECEWISE_BEZIER_KNOTS.);
#306 = CARTESIAN_POINT('',(14.020204102887,3.93E-15,17.2));
#307 = CARTESIAN_POINT('',(14.020204102884,-6.201231022425,
    17.200000000003));
#308 = CARTESIAN_POINT('',(11.066876821161,-12.53446671609,
    17.199999999986));
#309 = CARTESIAN_POINT('',(4.951960535902,-17.34899427527,
    17.200000000032));
#310 = CARTESIAN_POINT('',(-3.388345314738,-18.93178197772,
    17.199999999952));
#311 = CARTESIAN_POINT('',(-12.02794288379,-15.79878742661,
    17.200000000044));
#312 = CARTESIAN_POINT('',(-17.82370651846,-9.595668783799,
    17.199999999989));
#313 = CARTESIAN_POINT('',(-21.49016269898,-3.8568642E-10,
    17.199999999967));
#314 = CARTESIAN_POINT('',(-17.82370651851,9.595668784487,
    17.200000000064));
#315 = CARTESIAN_POINT('',(-12.02794288373,15.798787426125,
    17.199999999932));
#316 = CARTESIAN_POINT('',(-3.388345314793,18.931781978002,
    17.20000000005));
#317 = CARTESIAN_POINT('',(4.951960535933,17.34899427515,17.199999999974
    ));
#318 = CARTESIAN_POINT('',(11.06687682115,12.53446671614,17.20000000001)
  );
#319 = CARTESIAN_POINT('',(14.020204102886,6.201231022415,
    17.199999999998));
#320 = CARTESIAN_POINT('',(14.020204102887,3.93E-15,17.2));
#321 = B_SPLINE_SURFACE_WITH_KNOTS('',1,14,(
    (#322,#323,#324,#325,#326,#327,#328,#329,#330,#331,#332,#333,#334
      ,#335,#336)
    ,(#337,#338,#339,#340,#341,#342,#343,#344,#345,#346,#347,#348,#349
      ,#350,#351
    )),.UNSPECIFIED.,.F.,.T.,.F.,(2,2),(15,15),(0.,94.247779607694),(
    1.58E-15,94.247779607694),.PIECEWISE_BEZIER_KNOTS.);
#322 = CARTESIAN_POINT('',(14.020204102887,3.93E-15,17.2));
#323 = CARTESIAN_POINT('',(14.020204102884,-6.201231022425,
    17.200000000003));
#324 = CARTESIAN_POINT('',(11.066876821161,-12.53446671609,
    17.199999999986));
#325 = CARTESIAN_POINT('',(4.951960535902,-17.34899427527,
    17.200000000032));
#326 = CARTESIAN_POINT('',(-3.388345314738,-18.93178197772,
    17.199999999952));
#327 = CARTESIAN_POINT('',(-12.02794288379,-15.79878742661,
    17.200000000044));
#328 = CARTESIAN_POINT('',(-17.82370651846,-9.595668783799,
    17.199999999989));
#329 = CARTESIAN_POINT('',(-21.49016269898,-3.8568642E-10,
    17.199999999967));
#330 = CARTESIAN_POINT('',(-17.82370651851,9.595668784487,
    17.200000000064));
#331 = CARTESIAN_POINT('',(-12.02794288373,15.798787426125,
    17.199999999932));
#332 = CARTESIAN_POINT('',(-3.388345314793,18.931781978002,
    17.20000000005));
#333 = CARTESIAN_POINT('',(4.951960535933,17.34899427515,17.199999999974
    ));
#334 = CARTESIAN_POINT('',(11.06687682115,12.53446671614,17.20000000001)
  );
#335 = CARTESIAN_POINT('',(14.020204102886,6.201231022415,
    17.199999999998));
#336 = CARTESIAN_POINT('',(14.020204102887,3.93E-15,17.2));
#337 = CARTESIAN_POINT('',(15.,2.89E-15,16.));
#338 = CARTESIAN_POINT('',(14.999999999996,-6.634601369122,
    16.000000000005));
#339 = CARTESIAN_POINT('',(11.840280719116,-13.41043249881,
    15.999999999977));
#340 = CARTESIAN_POINT('',(5.298026155201,-18.5614212332,16.000000000065
    ));
#341 = CARTESIAN_POINT('',(-3.625138360875,-20.25482136935,
    15.999999999863));
#342 = CARTESIAN_POINT('',(-12.86851046772,-16.90287884967,
    16.000000000228));
#343 = CARTESIAN_POINT('',(-19.06930853601,-10.26625794471,
    15.999999999698));
#344 = CARTESIAN_POINT('',(-22.9919934204,-3.4917491E-10,16.000000000318
    ));
#345 = CARTESIAN_POINT('',(-19.06930853604,10.266257945351,
    15.999999999731));
#346 = CARTESIAN_POINT('',(-12.86851046769,16.902878849191,
    16.000000000185));
#347 = CARTESIAN_POINT('',(-3.625138360909,20.254821369661,
    15.999999999898));
#348 = CARTESIAN_POINT('',(5.298026155222,18.561421233055,
    16.000000000044));
#349 = CARTESIAN_POINT('',(11.840280719108,13.410432498872,
    15.999999999986));
#350 = CARTESIAN_POINT('',(14.999999999998,6.63460136911,16.000000000003
    ));
#351 = CARTESIAN_POINT('',(15.,6.56E-15,16.));
#352 = ADVANCED_FACE('',(#353),#365,.F.);
#353 = FACE_BOUND('',#354,.T.);
#354 = EDGE_LOOP('',(#355,#362,#363,#364));
#355 = ORIENTED_EDGE('',*,*,#356,.F.);
#356 = EDGE_CURVE('',#272,#296,#357,.T.);
#357 = CIRCLE('',#358,2.5);
#358 = AXIS2_PLACEMENT_3D('',#359,#360,#361);
#359 = CARTESIAN_POINT('',(15.,-4.33E-15,19.5));
#360 = DIRECTION('',(0.,-1.,-2.2E-16));
#361 = DIRECTION('',(1.,0.,0.));
#362 = ORIENTED_EDGE('',*,*,#279,.F.);
#363 = ORIENTED_EDGE('',*,*,#356,.T.);
#364 = ORIENTED_EDGE('',*,*,#304,.T.);
#365 = TOROIDAL_SURFACE('',#366,15.,2.5);
#366 = AXIS2_PLACEMENT_3D('',#367,#368,#369);
#367 = CARTESIAN_POINT('',(2.16E-15,2.16E-15,19.5));
#368 = DIRECTION('',(1.1E-16,1.1E-16,1.));
#369 = DIRECTION('',(1.,1.4E-16,-1.1E-16));
#370 = ( GEOMETRIC_REPRESENTATION_CONTEXT(3) 
GLOBAL_UNCERTAINTY_ASSIGNED_CONTEXT((#374)) GLOBAL_UNIT_ASSIGNED_CONTEXT
((#371,#372,#373)) REPRESENTATION_CONTEXT('Context #1',
  '3D Context with UNIT and UNCERTAINTY') );
#371 = ( LENGTH_UNIT() NAMED_UNIT(*) SI_UNIT(.MILLI.,.METRE.) );
#372 = ( NAMED_UNIT(*) PLANE_ANGLE_UNIT() SI_UNIT($,.RADIAN.) );
#373 = ( NAMED_UNIT(*) SI_UNIT($,.STERADIAN.) SOLID_ANGLE_UNIT() );
#374 = UNCERTAINTY_MEASURE_WITH_UNIT(LENGTH_MEASURE(5.E-06),#371,
  'distance_accuracy_value','confusion accuracy');
#375 = PRODUCT_RELATED_PRODUCT_CATEGORY('part',$,(#7));
#376 = MECHANICAL_DESIGN_GEOMETRIC_PRESENTATION_REPRESENTATION('',(#377)
  ,#370);
#377 = STYLED_ITEM('color',(#378),#15);
#378 = PRESENTATION_STYLE_ASSIGNMENT((#379,#385));
#379 = SURFACE_STYLE_USAGE(.BOTH.,#380);
#380 = SURFACE_SIDE_STYLE('',(#381));
#381 = SURFACE_STYLE_FILL_AREA(#382);
#382 = FILL_AREA_STYLE('',(#383));
#383 = FILL_AREA_STYLE_COLOUR('',#384);
#384 = COLOUR_RGB('',0.447058818107,0.474509808674,0.501960817233);
#385 = CURVE_STYLE('',#386,POSITIVE_LENGTH_MEASURE(0.1),#387);
#386 = DRAUGHTING_PRE_DEFINED_CURVE_FONT('continuous');
#387 = COLOUR_RGB('',9.803921802644E-02,9.803921802644E-02,
  9.803921802644E-02);
ENDSEC;
END-ISO-10303-21;
